<svg xmlns="http://www.w3.org/2000/svg" xmlns:xlink="http://www.w3.org/1999/xlink" width="500" zoomAndPan="magnify" viewBox="0 0 375 374.999991" height="500" preserveAspectRatio="xMidYMid meet" version="1.0"><defs><clipPath id="1834a2ca8d"><path d="M 38 12.523438 L 338 12.523438 L 338 224 L 38 224 Z M 38 12.523438 " clip-rule="nonzero"/></clipPath><clipPath id="2f237ac621"><path d="M 26 178 L 349 178 L 349 362.773438 L 26 362.773438 Z M 26 178 " clip-rule="nonzero"/></clipPath><clipPath id="de3ac9e106"><path d="M 25.867188 165 L 349 165 L 349 362.773438 L 25.867188 362.773438 Z M 25.867188 165 " clip-rule="nonzero"/></clipPath></defs><path fill="#703827" d="M 188.304688 16.511719 C 269.824219 16.511719 335.914062 82.660156 335.914062 164.253906 C 335.914062 172.667969 335.199219 180.910156 333.851562 188.9375 C 332.667969 189.945312 331.554688 191.105469 330.453125 192.488281 C 328.328125 195.144531 326.242188 198.617188 324.347656 201.335938 C 322.453125 204.054688 320.75 206.023438 319.011719 207.566406 C 317.273438 209.113281 315.496094 210.230469 313.644531 210.78125 C 311.792969 211.328125 309.867188 211.304688 306.421875 210.203125 C 302.976562 209.097656 298.007812 206.917969 293.820312 206.472656 C 289.632812 206.027344 286.222656 207.320312 282.949219 209.351562 C 279.675781 211.382812 276.535156 214.152344 273.148438 216.3125 C 269.765625 218.46875 266.132812 220.019531 261.964844 219.9375 C 257.796875 219.851562 253.09375 218.136719 249.523438 216.601562 C 245.953125 215.066406 243.515625 213.710938 239.78125 213.933594 C 236.046875 214.160156 231.011719 215.960938 226.148438 218.019531 C 221.285156 220.078125 216.59375 222.390625 212.507812 223.019531 C 208.425781 223.652344 204.953125 222.601562 201.65625 221 C 198.359375 219.398438 195.246094 217.25 192.894531 216.375 C 190.542969 215.503906 188.960938 215.90625 185.714844 217.054688 C 182.472656 218.199219 177.566406 220.089844 173.519531 221.488281 C 169.476562 222.886719 166.289062 223.792969 163.027344 223.78125 C 159.769531 223.769531 156.4375 222.839844 153.183594 221.234375 C 149.929688 219.632812 146.75 217.359375 143.554688 215.765625 C 140.355469 214.175781 137.140625 213.265625 133.847656 213.394531 C 130.558594 213.523438 127.191406 214.691406 123.851562 216.246094 C 120.511719 217.800781 117.203125 219.742188 114.402344 220.414062 C 111.605469 221.085938 109.320312 220.488281 106.1875 218.941406 C 103.050781 217.390625 99.058594 214.882812 96.125 213.042969 C 93.191406 211.203125 91.316406 210.035156 89.433594 208.789062 C 87.554688 207.539062 85.667969 206.21875 83.234375 205.804688 C 80.800781 205.390625 77.820312 205.882812 74.488281 207.035156 C 71.15625 208.1875 67.476562 209.996094 64.851562 210.609375 C 62.222656 211.21875 60.648438 210.636719 58.054688 208.382812 C 55.457031 206.125 51.839844 202.191406 49.058594 198.722656 C 46.773438 195.867188 45.050781 193.324219 43.148438 191.175781 C 41.542969 182.445312 40.695312 173.449219 40.695312 164.253906 C 40.695312 82.660156 106.78125 16.511719 188.304688 16.511719 Z M 188.304688 16.511719 " fill-opacity="1" fill-rule="evenodd"/><g clip-path="url(#1834a2ca8d)"><path fill="#5e2b20" d="M 100.300781 124.605469 C 101.523438 123.558594 103.210938 122.738281 105.097656 122.589844 C 106.988281 122.441406 109.078125 122.96875 110.945312 124.320312 C 112.816406 125.667969 114.464844 127.839844 116.589844 130.324219 C 118.714844 132.808594 121.3125 135.609375 124.472656 138.140625 C 127.628906 140.671875 131.351562 142.933594 134.972656 144.445312 C 138.59375 145.960938 142.117188 146.726562 145.511719 147.316406 C 148.902344 147.90625 152.164062 148.320312 154.535156 149.070312 C 156.902344 149.816406 158.378906 150.898438 159.074219 152.210938 C 159.769531 153.523438 159.679688 155.0625 159.292969 156.71875 C 158.910156 158.371094 158.226562 160.144531 157.011719 161.535156 C 155.796875 162.925781 154.050781 163.933594 151.042969 164.382812 C 148.035156 164.832031 143.769531 164.71875 139.601562 164.082031 C 135.433594 163.445312 131.367188 162.285156 127.433594 160.609375 C 123.5 158.933594 119.699219 156.742188 116.15625 154.140625 C 112.617188 151.542969 109.335938 148.535156 106.351562 145.171875 C 103.371094 141.804688 100.691406 138.085938 99.277344 135.191406 C 97.863281 132.300781 97.710938 130.238281 98.015625 128.574219 C 98.320312 126.914062 99.078125 125.648438 100.300781 124.605469 Z M 168.753906 137.546875 C 170.429688 137.132812 172.464844 137.058594 174.492188 138.464844 C 176.519531 139.871094 178.542969 142.761719 180.691406 146.738281 C 182.84375 150.710938 185.125 155.773438 186.6875 160.148438 C 188.25 164.523438 189.09375 168.210938 189.863281 171.953125 C 190.632812 175.695312 191.332031 179.484375 191.78125 182.507812 C 192.230469 185.527344 192.429688 187.773438 192.203125 189.761719 C 191.980469 191.753906 191.328125 193.480469 190.378906 194.796875 C 189.429688 196.113281 188.183594 197.019531 186.695312 197.527344 C 185.210938 198.035156 183.484375 198.140625 181.949219 197.832031 C 180.417969 197.519531 179.078125 196.789062 178 195.738281 C 176.921875 194.683594 176.109375 193.308594 175.589844 191.675781 C 175.066406 190.039062 174.84375 188.140625 174.261719 184.839844 C 173.675781 181.539062 172.734375 176.835938 171.507812 172.277344 C 170.28125 167.71875 168.769531 163.304688 167.292969 159.628906 C 165.816406 155.953125 164.378906 153.015625 163.472656 150.851562 C 162.566406 148.6875 162.1875 147.300781 162.039062 146.078125 C 161.886719 144.851562 161.964844 143.792969 162.402344 142.71875 C 162.839844 141.644531 163.644531 140.558594 164.703125 139.636719 C 165.761719 138.714844 167.078125 137.960938 168.753906 137.546875 Z M 156.988281 61.304688 C 158.261719 60.554688 159.921875 60.082031 161.65625 60.257812 C 163.390625 60.425781 165.195312 61.246094 166.667969 62.769531 C 168.144531 64.292969 169.285156 66.523438 170.804688 69.117188 C 172.328125 71.710938 174.226562 74.667969 176.679688 77.46875 C 179.128906 80.273438 182.128906 82.921875 185.164062 84.878906 C 188.199219 86.835938 191.265625 88.097656 194.238281 89.183594 C 197.214844 90.265625 200.101562 91.167969 202.125 92.230469 C 204.148438 93.289062 205.308594 94.507812 205.726562 95.808594 C 206.144531 97.105469 205.8125 98.488281 205.199219 99.921875 C 204.582031 101.359375 203.675781 102.851562 202.351562 103.914062 C 201.027344 104.976562 199.285156 105.605469 196.492188 105.527344 C 193.695312 105.445312 189.851562 104.652344 186.179688 103.402344 C 182.511719 102.152344 179.015625 100.441406 175.726562 98.289062 C 172.4375 96.132812 169.351562 93.535156 166.566406 90.609375 C 163.78125 87.679688 161.296875 84.425781 159.140625 80.898438 C 156.988281 77.371094 155.160156 73.570312 154.347656 70.722656 C 153.535156 67.875 153.730469 65.984375 154.277344 64.527344 C 154.820312 63.070312 155.710938 62.050781 156.988281 61.304688 Z M 214.988281 88.992188 C 215.191406 87.527344 215.847656 85.929688 217.050781 84.671875 C 218.257812 83.414062 220.015625 82.5 222.125 82.28125 C 224.234375 82.0625 226.691406 82.542969 229.667969 82.949219 C 232.644531 83.355469 236.140625 83.6875 239.855469 83.492188 C 243.574219 83.292969 247.507812 82.570312 250.921875 81.390625 C 254.332031 80.210938 257.21875 78.582031 259.910156 76.910156 C 262.601562 75.238281 265.09375 73.523438 267.175781 72.589844 C 269.261719 71.652344 270.9375 71.492188 272.214844 71.964844 C 273.492188 72.441406 274.371094 73.554688 275.121094 74.925781 C 275.867188 76.296875 276.480469 77.933594 276.496094 79.628906 C 276.511719 81.328125 275.929688 83.089844 274.140625 85.238281 C 272.347656 87.390625 269.347656 89.925781 266.097656 92.039062 C 262.847656 94.15625 259.347656 95.847656 255.621094 97.105469 C 251.894531 98.359375 247.949219 99.183594 243.925781 99.566406 C 239.90625 99.949219 235.816406 99.894531 231.714844 99.410156 C 227.609375 98.925781 223.496094 98.011719 220.757812 96.890625 C 218.019531 95.773438 216.65625 94.449219 215.847656 93.121094 C 215.039062 91.792969 214.789062 90.460938 214.988281 88.992188 Z M 69.253906 62.792969 C 68.792969 61.128906 68.660156 59.097656 70.007812 57.027344 C 71.351562 54.957031 74.183594 52.851562 78.089844 50.585938 C 82 48.320312 86.988281 45.894531 91.3125 44.207031 C 95.636719 42.519531 99.296875 41.570312 103.011719 40.695312 C 106.726562 39.816406 110.496094 39.011719 113.496094 38.476562 C 116.5 37.941406 118.742188 37.675781 120.734375 37.84375 C 122.726562 38.015625 124.46875 38.617188 125.8125 39.527344 C 127.15625 40.441406 128.09375 41.660156 128.644531 43.132812 C 129.191406 44.609375 129.347656 46.332031 129.082031 47.875 C 128.816406 49.417969 128.125 50.777344 127.105469 51.886719 C 126.082031 52.996094 124.734375 53.847656 123.113281 54.414062 C 121.496094 54.980469 119.605469 55.261719 116.324219 55.9375 C 113.046875 56.617188 108.375 57.691406 103.859375 59.046875 C 99.339844 60.40625 94.976562 62.046875 91.347656 63.625 C 87.71875 65.207031 84.824219 66.730469 82.691406 67.699219 C 80.554688 68.667969 79.179688 69.085938 77.964844 69.269531 C 76.746094 69.457031 75.683594 69.410156 74.597656 69 C 73.515625 68.589844 72.40625 67.820312 71.453125 66.789062 C 70.503906 65.753906 69.714844 64.460938 69.253906 62.792969 Z M 47.953125 115.214844 C 46.898438 113.84375 46.011719 112.011719 46.480469 109.585938 C 46.953125 107.160156 48.785156 104.148438 51.554688 100.578125 C 54.328125 97.007812 58.039062 92.882812 61.414062 89.691406 C 64.789062 86.5 67.824219 84.246094 70.9375 82.035156 C 74.046875 79.824219 77.238281 77.660156 79.820312 76.035156 C 82.402344 74.410156 84.378906 73.320312 86.289062 72.726562 C 88.195312 72.132812 90.039062 72.035156 91.625 72.375 C 93.210938 72.714844 94.542969 73.496094 95.601562 74.652344 C 96.664062 75.8125 97.457031 77.351562 97.789062 78.878906 C 98.121094 80.410156 97.992188 81.933594 97.464844 83.34375 C 96.933594 84.753906 96.003906 86.054688 94.714844 87.1875 C 93.429688 88.320312 91.78125 89.289062 88.996094 91.152344 C 86.210938 93.011719 82.289062 95.765625 78.613281 98.722656 C 74.9375 101.683594 71.507812 104.84375 68.738281 107.671875 C 65.96875 110.503906 63.859375 113.003906 62.242188 114.703125 C 60.628906 116.40625 59.511719 117.308594 58.453125 117.9375 C 57.394531 118.566406 56.394531 118.925781 55.234375 118.953125 C 54.078125 118.984375 52.757812 118.6875 51.492188 118.085938 C 50.222656 117.484375 49.003906 116.582031 47.953125 115.214844 Z M 47.75 194.363281 C 46.207031 193.910156 44.597656 192.945312 43.441406 191.445312 C 42.285156 189.941406 41.585938 187.902344 41.695312 185.597656 C 41.800781 183.292969 42.714844 180.726562 43.636719 177.585938 C 44.554688 174.449219 45.476562 170.738281 45.871094 166.707031 C 46.261719 162.675781 46.121094 158.324219 45.40625 154.460938 C 44.695312 150.597656 43.414062 147.222656 42.050781 144.058594 C 40.691406 140.890625 39.257812 137.929688 38.585938 135.535156 C 37.917969 133.140625 38.019531 131.3125 38.734375 130.011719 C 39.453125 128.714844 40.789062 127.945312 42.386719 127.367188 C 43.980469 126.785156 45.835938 126.390625 47.664062 126.648438 C 49.492188 126.90625 51.289062 127.816406 53.308594 130.09375 C 55.328125 132.371094 57.566406 136.007812 59.3125 139.851562 C 61.054688 143.691406 62.304688 147.734375 63.050781 151.949219 C 63.796875 156.160156 64.042969 160.546875 63.800781 164.933594 C 63.5625 169.324219 62.839844 173.71875 61.652344 178.054688 C 60.464844 182.390625 58.816406 186.671875 57.167969 189.4375 C 55.523438 192.207031 53.878906 193.457031 52.320312 194.113281 C 50.761719 194.765625 49.292969 194.820312 47.75 194.367188 Z M 77.25 166.734375 C 75.546875 166.4375 73.65625 165.683594 72.367188 163.578125 C 71.078125 161.472656 70.390625 158.011719 70.023438 153.503906 C 69.65625 149 69.605469 143.449219 69.9375 138.816406 C 70.273438 134.179688 70.988281 130.464844 71.789062 126.730469 C 72.589844 122.996094 73.480469 119.242188 74.285156 116.296875 C 75.089844 113.351562 75.8125 111.214844 76.820312 109.484375 C 77.828125 107.757812 79.121094 106.4375 80.519531 105.617188 C 81.917969 104.792969 83.421875 104.46875 84.988281 104.605469 C 86.550781 104.742188 88.175781 105.335938 89.453125 106.242188 C 90.730469 107.144531 91.664062 108.355469 92.226562 109.75 C 92.789062 111.148438 92.980469 112.734375 92.796875 114.441406 C 92.613281 116.148438 92.054688 117.976562 91.257812 121.234375 C 90.460938 124.488281 89.429688 129.171875 88.714844 133.839844 C 88.003906 138.507812 87.609375 143.15625 87.480469 147.113281 C 87.347656 151.074219 87.480469 154.34375 87.4375 156.6875 C 87.398438 159.035156 87.183594 160.457031 86.828125 161.636719 C 86.472656 162.816406 85.976562 163.757812 85.144531 164.5625 C 84.308594 165.367188 83.136719 166.039062 81.796875 166.457031 C 80.457031 166.871094 78.949219 167.03125 77.25 166.734375 Z M 96.441406 174.296875 C 96.886719 173.128906 97.679688 171.882812 99.355469 171.253906 C 101.027344 170.628906 103.582031 170.613281 106.832031 170.972656 C 110.085938 171.332031 114.035156 172.058594 117.28125 172.933594 C 120.53125 173.808594 123.070312 174.828125 125.617188 175.910156 C 128.15625 176.996094 130.703125 178.144531 132.683594 179.121094 C 134.664062 180.101562 136.085938 180.910156 137.175781 181.863281 C 138.265625 182.816406 139.023438 183.917969 139.417969 185.027344 C 139.808594 186.136719 139.832031 187.253906 139.519531 188.347656 C 139.207031 189.441406 138.5625 190.515625 137.746094 191.300781 C 136.925781 192.085938 135.9375 192.585938 134.867188 192.792969 C 133.796875 193 132.644531 192.917969 131.457031 192.554688 C 130.269531 192.1875 129.046875 191.539062 126.84375 190.523438 C 124.640625 189.511719 121.453125 188.132812 118.234375 186.980469 C 115.019531 185.832031 111.769531 184.914062 108.972656 184.277344 C 106.179688 183.640625 103.835938 183.285156 102.175781 182.933594 C 100.515625 182.578125 99.535156 182.230469 98.746094 181.816406 C 97.953125 181.402344 97.355469 180.917969 96.898438 180.214844 C 96.441406 179.511719 96.125 178.582031 96.011719 177.570312 C 95.902344 176.5625 95.996094 175.46875 96.441406 174.296875 Z M 265.808594 160.214844 C 267.164062 160.121094 268.75 160.339844 270.128906 161.707031 C 271.507812 163.074219 272.683594 165.585938 273.808594 168.960938 C 274.933594 172.332031 276.011719 176.5625 276.625 180.160156 C 277.242188 183.761719 277.390625 186.738281 277.480469 189.738281 C 277.566406 192.742188 277.59375 195.773438 277.527344 198.175781 C 277.464844 200.574219 277.316406 202.34375 276.871094 203.851562 C 276.425781 205.363281 275.6875 206.613281 274.773438 207.503906 C 273.859375 208.394531 272.769531 208.925781 271.550781 209.113281 C 270.328125 209.304688 268.976562 209.152344 267.832031 208.703125 C 266.6875 208.253906 265.75 207.503906 265.058594 206.542969 C 264.367188 205.582031 263.921875 204.40625 263.742188 203.066406 C 263.5625 201.730469 263.644531 200.230469 263.644531 197.59375 C 263.640625 194.957031 263.550781 191.1875 263.21875 187.488281 C 262.890625 183.789062 262.320312 180.167969 261.675781 177.117188 C 261.03125 174.070312 260.320312 171.597656 259.910156 169.800781 C 259.503906 168 259.398438 166.875 259.449219 165.90625 C 259.5 164.9375 259.703125 164.128906 260.1875 163.355469 C 260.675781 162.582031 261.445312 161.847656 262.390625 161.28125 C 263.335938 160.710938 264.457031 160.308594 265.808594 160.214844 Z M 190.855469 71.507812 C 190.253906 70.449219 189.820312 69.082031 190.386719 67.4375 C 190.957031 65.792969 192.53125 63.875 194.816406 61.660156 C 197.101562 59.445312 200.097656 56.9375 202.765625 55.050781 C 205.433594 53.160156 207.773438 51.886719 210.160156 50.65625 C 212.550781 49.421875 214.988281 48.230469 216.949219 47.351562 C 218.910156 46.476562 220.394531 45.914062 221.785156 45.6875 C 223.175781 45.464844 224.46875 45.578125 225.542969 45.972656 C 226.613281 46.367188 227.464844 47.042969 228.089844 47.957031 C 228.714844 48.867188 229.117188 50.019531 229.195312 51.117188 C 229.277344 52.21875 229.035156 53.265625 228.527344 54.199219 C 228.015625 55.128906 227.242188 55.941406 226.230469 56.605469 C 225.21875 57.269531 223.976562 57.78125 221.851562 58.800781 C 219.726562 59.824219 216.71875 61.355469 213.859375 63.050781 C 211.003906 64.75 208.300781 66.613281 206.089844 68.3125 C 203.882812 70.007812 202.164062 71.542969 200.867188 72.566406 C 199.574219 73.59375 198.707031 74.113281 197.90625 74.449219 C 197.105469 74.78125 196.371094 74.929688 195.5625 74.835938 C 194.75 74.742188 193.863281 74.402344 193.035156 73.859375 C 192.210938 73.316406 191.453125 72.566406 190.855469 71.507812 Z M 108.144531 69.359375 C 108.582031 68.226562 109.355469 67.015625 110.984375 66.410156 C 112.613281 65.804688 115.09375 65.796875 118.253906 66.152344 C 121.417969 66.507812 125.253906 67.222656 128.410156 68.082031 C 131.5625 68.9375 134.035156 69.933594 136.503906 70.996094 C 138.972656 72.054688 141.441406 73.175781 143.367188 74.132812 C 145.292969 75.089844 146.671875 75.878906 147.726562 76.808594 C 148.785156 77.738281 149.519531 78.8125 149.898438 79.890625 C 150.277344 80.96875 150.300781 82.054688 149.992188 83.117188 C 149.6875 84.179688 149.054688 85.222656 148.261719 85.984375 C 147.464844 86.746094 146.5 87.226562 145.460938 87.425781 C 144.421875 87.625 143.296875 87.542969 142.144531 87.1875 C 140.992188 86.828125 139.804688 86.195312 137.664062 85.203125 C 135.523438 84.214844 132.429688 82.867188 129.304688 81.742188 C 126.179688 80.617188 123.023438 79.714844 120.308594 79.089844 C 117.589844 78.464844 115.316406 78.113281 113.703125 77.765625 C 112.089844 77.421875 111.136719 77.082031 110.367188 76.675781 C 109.601562 76.269531 109.019531 75.800781 108.578125 75.113281 C 108.132812 74.429688 107.828125 73.527344 107.722656 72.542969 C 107.617188 71.558594 107.710938 70.496094 108.144531 69.359375 Z M 289.355469 80.675781 C 288.199219 80.894531 286.832031 80.804688 285.582031 80.210938 C 284.328125 79.621094 283.195312 78.527344 282.5 76.996094 C 281.800781 75.460938 281.542969 73.488281 281.09375 71.140625 C 280.648438 68.792969 280.011719 66.074219 278.925781 63.324219 C 277.839844 60.574219 276.296875 57.789062 274.546875 55.515625 C 272.800781 53.242188 270.84375 51.480469 268.90625 49.875 C 266.964844 48.269531 265.046875 46.824219 263.816406 45.492188 C 262.585938 44.15625 262.039062 42.933594 262.074219 41.851562 C 262.109375 40.769531 262.722656 39.824219 263.566406 38.914062 C 264.410156 38.003906 265.484375 37.128906 266.757812 36.6875 C 268.03125 36.246094 269.503906 36.238281 271.574219 37.042969 C 273.644531 37.851562 276.308594 39.46875 278.722656 41.382812 C 281.136719 43.300781 283.292969 45.511719 285.179688 48 C 287.070312 50.492188 288.6875 53.257812 289.992188 56.191406 C 291.296875 59.125 292.289062 62.222656 292.960938 65.4375 C 293.632812 68.652344 293.984375 71.984375 293.835938 74.332031 C 293.6875 76.679688 293.035156 78.039062 292.242188 78.984375 C 291.445312 79.929688 290.507812 80.457031 289.351562 80.675781 Z M 321.1875 85.585938 C 321.390625 86.742188 321.28125 88.113281 320.671875 89.355469 C 320.066406 90.601562 318.957031 91.71875 317.417969 92.394531 C 315.875 93.074219 313.898438 93.304688 311.550781 93.722656 C 309.199219 94.136719 306.472656 94.734375 303.710938 95.785156 C 300.949219 96.835938 298.144531 98.339844 295.851562 100.058594 C 293.554688 101.777344 291.765625 103.710938 290.136719 105.628906 C 288.507812 107.546875 287.035156 109.445312 285.6875 110.660156 C 284.335938 111.875 283.109375 112.402344 282.027344 112.351562 C 280.945312 112.304688 280.011719 111.675781 279.113281 110.820312 C 278.214844 109.960938 277.355469 108.875 276.933594 107.59375 C 276.507812 106.3125 276.523438 104.839844 277.355469 102.78125 C 278.191406 100.71875 279.84375 98.074219 281.789062 95.683594 C 283.738281 93.296875 285.976562 91.167969 288.488281 89.3125 C 291.003906 87.457031 293.789062 85.875 296.738281 84.613281 C 299.6875 83.347656 302.792969 82.394531 306.015625 81.765625 C 309.234375 81.136719 312.570312 80.832031 314.914062 81.011719 C 317.253906 81.195312 318.605469 81.863281 319.539062 82.671875 C 320.472656 83.484375 320.984375 84.429688 321.1875 85.585938 Z M 332.179688 152.949219 C 330.839844 153.1875 329.257812 153.066406 327.816406 152.367188 C 326.375 151.667969 325.074219 150.390625 324.285156 148.605469 C 323.496094 146.820312 323.21875 144.53125 322.726562 141.808594 C 322.238281 139.089844 321.535156 135.933594 320.308594 132.734375 C 319.082031 129.535156 317.332031 126.296875 315.332031 123.640625 C 313.335938 120.988281 311.089844 118.921875 308.867188 117.039062 C 306.640625 115.160156 304.4375 113.464844 303.027344 111.90625 C 301.617188 110.347656 301 108.925781 301.050781 107.671875 C 301.105469 106.417969 301.828125 105.332031 302.8125 104.285156 C 303.800781 103.242188 305.054688 102.242188 306.535156 101.746094 C 308.015625 101.25 309.722656 101.257812 312.109375 102.21875 C 314.496094 103.175781 317.5625 105.082031 320.335938 107.328125 C 323.105469 109.574219 325.578125 112.160156 327.734375 115.066406 C 329.890625 117.96875 331.730469 121.195312 333.207031 124.605469 C 334.683594 128.019531 335.796875 131.617188 336.535156 135.347656 C 337.277344 139.078125 337.644531 142.941406 337.445312 145.65625 C 337.246094 148.371094 336.472656 149.941406 335.542969 151.027344 C 334.609375 152.109375 333.515625 152.707031 332.179688 152.949219 Z M 281.03125 148.578125 C 282.03125 147.167969 283.523438 145.78125 285.976562 145.519531 C 288.429688 145.261719 291.847656 146.128906 296.070312 147.734375 C 300.292969 149.335938 305.320312 151.679688 309.359375 153.96875 C 313.398438 156.261719 316.441406 158.507812 319.464844 160.835938 C 322.492188 163.164062 325.492188 165.582031 327.804688 167.574219 C 330.113281 169.570312 331.734375 171.140625 332.859375 172.792969 C 333.988281 174.449219 334.621094 176.183594 334.761719 177.800781 C 334.902344 179.417969 334.550781 180.917969 333.753906 182.273438 C 332.957031 183.628906 331.722656 184.839844 330.359375 185.605469 C 328.996094 186.375 327.503906 186.695312 326 186.601562 C 324.496094 186.507812 322.984375 186 321.523438 185.101562 C 320.0625 184.203125 318.652344 182.910156 316.058594 180.792969 C 313.460938 178.675781 309.679688 175.726562 305.777344 173.078125 C 301.875 170.429688 297.847656 168.074219 294.332031 166.253906 C 290.816406 164.433594 287.8125 163.148438 285.714844 162.105469 C 283.617188 161.058594 282.425781 160.253906 281.511719 159.425781 C 280.597656 158.597656 279.964844 157.746094 279.597656 156.644531 C 279.230469 155.542969 279.125 154.195312 279.328125 152.808594 C 279.527344 151.417969 280.035156 149.988281 281.03125 148.578125 Z M 252.730469 180.15625 C 251.863281 181.355469 250.535156 182.457031 248.882812 183 C 247.226562 183.546875 245.246094 183.527344 243.28125 182.730469 C 241.320312 181.933594 239.375 180.351562 236.933594 178.59375 C 234.496094 176.835938 231.566406 174.902344 228.191406 173.328125 C 224.820312 171.753906 221.003906 170.546875 217.441406 169.984375 C 213.875 169.417969 210.558594 169.5 207.402344 169.714844 C 204.242188 169.925781 201.238281 170.265625 198.957031 170.113281 C 196.679688 169.960938 195.125 169.316406 194.21875 168.296875 C 193.3125 167.277344 193.058594 165.882812 193.042969 164.320312 C 193.027344 162.753906 193.25 161.023438 194.035156 159.519531 C 194.816406 158.011719 196.15625 156.730469 198.746094 155.671875 C 201.335938 154.617188 205.171875 153.785156 209.035156 153.445312 C 212.894531 153.109375 216.78125 153.257812 220.660156 153.898438 C 224.539062 154.539062 228.410156 155.671875 232.140625 157.222656 C 235.871094 158.773438 239.457031 160.746094 242.851562 163.101562 C 246.246094 165.457031 249.449219 168.199219 251.34375 170.472656 C 253.238281 172.75 253.820312 174.558594 253.910156 176.109375 C 254 177.660156 253.597656 178.957031 252.730469 180.15625 Z M 285.832031 179.699219 C 286.914062 178.800781 288.375 178.128906 289.980469 178.085938 C 291.585938 178.039062 293.328125 178.628906 294.851562 179.957031 C 296.371094 181.289062 297.667969 183.359375 299.355469 185.746094 C 301.039062 188.132812 303.113281 190.832031 305.671875 193.3125 C 308.230469 195.789062 311.277344 198.046875 314.273438 199.613281 C 317.269531 201.179688 320.21875 202.058594 323.0625 202.765625 L 323.277344 202.816406 C 321.800781 204.792969 320.417969 206.320312 319.011719 207.566406 C 317.273438 209.113281 315.496094 210.230469 313.644531 210.78125 C 311.792969 211.328125 309.867188 211.304688 306.421875 210.203125 C 303.941406 209.40625 300.671875 208.054688 297.472656 207.195312 C 294.765625 204.730469 292.277344 201.945312 290.027344 198.878906 C 287.65625 195.644531 285.554688 192.097656 284.488281 189.375 C 283.421875 186.648438 283.386719 184.75 283.71875 183.234375 C 284.050781 181.722656 284.75 180.601562 285.832031 179.699219 Z M 237.089844 189.453125 C 238.441406 189.359375 240.03125 189.578125 241.410156 190.945312 C 242.789062 192.3125 243.960938 194.824219 245.085938 198.199219 C 246.214844 201.570312 247.292969 205.800781 247.90625 209.402344 C 248.332031 211.90625 248.539062 214.105469 248.652344 216.222656 C 245.535156 214.851562 243.203125 213.730469 239.78125 213.933594 C 238.167969 214.03125 236.308594 214.421875 234.328125 215.003906 C 233.988281 211.914062 233.496094 208.929688 232.957031 206.359375 C 232.3125 203.308594 231.597656 200.835938 231.191406 199.039062 C 230.78125 197.238281 230.679688 196.113281 230.730469 195.144531 C 230.777344 194.175781 230.980469 193.367188 231.46875 192.59375 C 231.953125 191.824219 232.722656 191.089844 233.667969 190.519531 C 234.613281 189.949219 235.734375 189.546875 237.089844 189.453125 Z M 214.972656 182.382812 C 216.316406 183.105469 217.691406 184.261719 218.191406 186.382812 C 218.6875 188.503906 218.300781 191.59375 217.363281 195.46875 C 216.421875 199.34375 214.925781 204.007812 213.363281 207.796875 C 211.800781 211.585938 210.171875 214.5 208.46875 217.40625 C 207.445312 219.148438 206.390625 220.890625 205.390625 222.488281 C 204.109375 222.105469 202.871094 221.589844 201.65625 221 C 198.359375 219.398438 195.246094 217.25 192.894531 216.375 C 192.242188 216.132812 191.644531 215.988281 191.058594 215.933594 C 192.578125 213.472656 194.53125 210.144531 196.257812 206.753906 C 198.148438 203.042969 199.765625 199.257812 200.972656 195.976562 C 202.175781 192.699219 202.972656 189.921875 203.65625 187.96875 C 204.339844 186.015625 204.914062 184.886719 205.539062 183.992188 C 206.164062 183.105469 206.839844 182.453125 207.761719 182.011719 C 208.683594 181.570312 209.851562 181.332031 211.089844 181.355469 C 212.324219 181.378906 213.632812 181.664062 214.972656 182.382812 Z M 151.242188 220.207031 C 151.765625 218.0625 152.214844 215.75 152.472656 213.316406 C 152.898438 209.289062 152.792969 204.933594 152.113281 201.0625 C 151.433594 197.195312 150.175781 193.8125 148.84375 190.632812 C 147.511719 187.457031 146.097656 184.484375 145.449219 182.085938 C 144.800781 179.683594 144.914062 177.855469 145.644531 176.5625 C 146.371094 175.269531 147.714844 174.515625 149.316406 173.945312 C 150.917969 173.378906 152.777344 173 154.601562 173.269531 C 156.425781 173.546875 158.214844 174.472656 160.214844 176.765625 C 162.214844 179.058594 164.425781 182.714844 166.136719 186.570312 C 167.847656 190.425781 169.066406 194.480469 169.777344 198.699219 C 170.488281 202.917969 170.695312 207.304688 170.417969 211.691406 C 170.179688 215.472656 169.582031 219.257812 168.636719 223.003906 C 166.679688 223.503906 164.867188 223.789062 163.027344 223.78125 C 159.769531 223.769531 156.4375 222.839844 153.183594 221.234375 C 152.535156 220.914062 151.886719 220.570312 151.242188 220.207031 Z M 116.792969 217.625 C 115.753906 218.828125 114.265625 219.972656 111.992188 219.996094 C 109.714844 220.023438 106.65625 218.925781 102.921875 217.085938 C 102.527344 216.890625 102.125 216.6875 101.714844 216.476562 C 99.742188 215.3125 97.769531 214.074219 96.125 213.042969 C 93.191406 211.203125 91.316406 210.035156 89.433594 208.789062 C 89.183594 208.621094 88.933594 208.453125 88.683594 208.289062 C 86.40625 206.519531 84.496094 204.789062 82.601562 203.019531 C 80.03125 200.621094 77.484375 198.140625 75.539062 196.109375 C 73.59375 194.078125 72.246094 192.496094 71.355469 190.878906 C 70.464844 189.265625 70.035156 187.617188 70.046875 186.121094 C 70.058594 184.625 70.515625 183.277344 71.363281 182.105469 C 72.210938 180.929688 73.449219 179.929688 74.769531 179.34375 C 76.085938 178.761719 77.484375 178.59375 78.851562 178.8125 C 80.222656 179.027344 81.570312 179.625 82.832031 180.578125 C 84.09375 181.53125 85.273438 182.839844 87.46875 185.007812 C 89.664062 187.179688 92.878906 190.214844 96.226562 192.984375 C 99.578125 195.757812 103.066406 198.269531 106.132812 200.246094 C 109.199219 202.222656 111.84375 203.664062 113.679688 204.804688 C 115.511719 205.949219 116.535156 206.789062 117.300781 207.628906 C 118.066406 208.46875 118.570312 209.308594 118.8125 210.347656 C 119.054688 211.390625 119.03125 212.636719 118.726562 213.894531 C 118.421875 215.148438 117.832031 216.417969 116.792969 217.625 Z M 96.410156 91.140625 C 97.550781 89.652344 99.222656 88.207031 101.898438 88.023438 C 104.570312 87.835938 108.242188 88.914062 112.757812 90.824219 C 117.273438 92.730469 122.632812 95.46875 126.921875 98.117188 C 131.210938 100.765625 134.425781 103.320312 137.613281 105.96875 C 140.800781 108.617188 143.960938 111.355469 146.386719 113.613281 C 148.816406 115.867188 150.507812 117.636719 151.664062 119.472656 C 152.820312 121.3125 153.441406 123.21875 153.527344 124.980469 C 153.617188 126.738281 153.175781 128.351562 152.257812 129.792969 C 151.339844 131.230469 149.953125 132.492188 148.441406 133.269531 C 146.929688 134.046875 145.300781 134.335938 143.675781 134.179688 C 142.046875 134.015625 140.425781 133.40625 138.878906 132.371094 C 137.328125 131.335938 135.851562 129.882812 133.121094 127.480469 C 130.390625 125.078125 126.40625 121.730469 122.277344 118.699219 C 118.148438 115.671875 113.875 112.957031 110.136719 110.84375 C 106.394531 108.730469 103.1875 107.214844 100.949219 105.996094 C 98.71875 104.78125 97.457031 103.859375 96.5 102.925781 C 95.542969 101.992188 94.890625 101.042969 94.535156 99.832031 C 94.179688 98.625 94.121094 97.160156 94.394531 95.660156 C 94.667969 94.160156 95.273438 92.628906 96.410156 91.140625 Z M 202.160156 134.121094 C 201.28125 135.550781 199.925781 136.988281 197.5625 137.394531 C 195.203125 137.804688 191.835938 137.179688 187.644531 135.890625 C 183.453125 134.601562 178.4375 132.652344 174.378906 130.6875 C 170.324219 128.71875 167.234375 126.738281 164.15625 124.671875 C 161.082031 122.605469 158.019531 120.457031 155.65625 118.667969 C 153.292969 116.882812 151.625 115.460938 150.429688 113.933594 C 149.234375 112.402344 148.511719 110.761719 148.273438 109.203125 C 148.035156 107.644531 148.28125 106.167969 148.96875 104.804688 C 149.652344 103.445312 150.773438 102.191406 152.046875 101.363281 C 153.320312 100.535156 154.746094 100.128906 156.207031 100.125 C 157.667969 100.121094 159.164062 100.515625 160.636719 101.296875 C 162.109375 102.074219 163.554688 103.234375 166.203125 105.125 C 168.851562 107.011719 172.699219 109.628906 176.648438 111.949219 C 180.59375 114.269531 184.644531 116.296875 188.164062 117.835938 C 191.683594 119.378906 194.675781 120.433594 196.773438 121.316406 C 198.871094 122.195312 200.078125 122.898438 201.011719 123.644531 C 201.949219 124.390625 202.617188 125.175781 203.042969 126.21875 C 203.46875 127.261719 203.652344 128.558594 203.546875 129.917969 C 203.4375 131.277344 203.039062 132.695312 202.160156 134.121094 Z M 257.625 156.378906 C 256.257812 157.601562 254.386719 158.679688 251.789062 158.367188 C 249.195312 158.054688 245.871094 156.347656 241.890625 153.6875 C 237.90625 151.027344 233.265625 147.417969 229.640625 144.09375 C 226.011719 140.765625 223.394531 137.726562 220.824219 134.601562 C 218.253906 131.480469 215.722656 128.273438 213.808594 125.664062 C 211.894531 123.058594 210.59375 121.046875 209.820312 119.074219 C 209.046875 117.097656 208.804688 115.15625 209.042969 113.453125 C 209.277344 111.75 210 110.28125 211.140625 109.070312 C 212.285156 107.859375 213.847656 106.902344 215.4375 106.433594 C 217.027344 105.964844 218.644531 105.988281 220.175781 106.4375 C 221.707031 106.890625 223.148438 107.773438 224.445312 109.050781 C 225.742188 110.324219 226.890625 111.992188 229.070312 114.796875 C 231.25 117.601562 234.457031 121.542969 237.863281 125.207031 C 241.265625 128.867188 244.867188 132.253906 248.066406 134.964844 C 251.269531 137.679688 254.070312 139.722656 255.988281 141.300781 C 257.910156 142.875 258.949219 143.992188 259.695312 145.0625 C 260.441406 146.132812 260.894531 147.164062 261.015625 148.386719 C 261.132812 149.613281 260.921875 151.027344 260.382812 152.417969 C 259.847656 153.804688 258.988281 155.164062 257.625 156.378906 Z M 183.976562 57.121094 C 183.03125 58.664062 181.5625 60.21875 179.011719 60.65625 C 176.460938 61.097656 172.828125 60.421875 168.300781 59.03125 C 163.773438 57.640625 158.355469 55.535156 153.972656 53.410156 C 149.59375 51.285156 146.253906 49.148438 142.933594 46.914062 C 139.609375 44.683594 136.304688 42.359375 133.75 40.429688 C 131.195312 38.503906 129.394531 36.96875 128.105469 35.316406 C 126.8125 33.664062 126.03125 31.890625 125.773438 30.207031 C 125.519531 28.523438 125.785156 26.929688 126.523438 25.457031 C 127.265625 23.988281 128.476562 22.636719 129.851562 21.738281 C 131.226562 20.84375 132.765625 20.40625 134.34375 20.402344 C 135.921875 20.394531 137.539062 20.824219 139.128906 21.667969 C 140.722656 22.507812 142.28125 23.761719 145.140625 25.800781 C 148 27.839844 152.160156 30.667969 156.421875 33.175781 C 160.6875 35.679688 165.058594 37.867188 168.859375 39.53125 C 172.660156 41.195312 175.894531 42.339844 178.160156 43.289062 C 180.425781 44.238281 181.726562 45 182.738281 45.804688 C 183.75 46.609375 184.472656 47.457031 184.929688 48.582031 C 185.390625 49.710938 185.589844 51.113281 185.472656 52.582031 C 185.359375 54.050781 184.925781 55.578125 183.976562 57.121094 Z M 157.992188 18.632812 C 158.511719 16.898438 159.53125 15.019531 161.882812 13.9375 C 164.234375 12.855469 167.917969 12.570312 172.648438 12.746094 C 177.382812 12.921875 183.160156 13.5625 187.941406 14.484375 C 192.71875 15.40625 196.496094 16.613281 200.28125 17.914062 C 204.066406 19.214844 207.859375 20.605469 210.820312 21.8125 C 213.785156 23.015625 215.921875 24.035156 217.59375 25.300781 C 219.265625 26.5625 220.476562 28.074219 221.160156 29.632812 C 221.839844 31.195312 221.992188 32.804688 221.65625 34.417969 C 221.320312 36.03125 220.496094 37.648438 219.398438 38.867188 C 218.300781 40.085938 216.925781 40.90625 215.402344 41.320312 C 213.878906 41.730469 212.207031 41.734375 210.453125 41.332031 C 208.699219 40.925781 206.867188 40.117188 203.578125 38.882812 C 200.292969 37.652344 195.546875 35.992188 190.78125 34.667969 C 186.015625 33.347656 181.230469 32.359375 177.128906 31.730469 C 173.027344 31.101562 169.609375 30.832031 167.175781 30.5 C 164.738281 30.167969 163.285156 29.765625 162.101562 29.25 C 160.917969 28.730469 160.003906 28.097656 159.269531 27.128906 C 158.535156 26.160156 157.980469 24.855469 157.714844 23.40625 C 157.449219 21.957031 157.472656 20.367188 157.992188 18.632812 Z M 247.207031 70.101562 C 245.902344 70.050781 244.4375 69.617188 243.226562 68.664062 C 242.015625 67.710938 241.058594 66.246094 240.679688 64.40625 C 240.304688 62.570312 240.511719 60.363281 240.609375 57.707031 C 240.703125 55.050781 240.691406 51.945312 240.191406 48.691406 C 239.691406 45.433594 238.710938 42.035156 237.375 39.132812 C 236.042969 36.234375 234.355469 33.832031 232.652344 31.609375 C 230.945312 29.386719 229.222656 27.34375 228.214844 25.59375 C 227.210938 23.839844 226.921875 22.378906 227.226562 21.210938 C 227.53125 20.046875 228.433594 19.171875 229.574219 18.394531 C 230.714844 17.617188 232.097656 16.933594 233.585938 16.769531 C 235.078125 16.609375 236.675781 16.964844 238.722656 18.355469 C 240.769531 19.742188 243.261719 22.160156 245.40625 24.835938 C 247.546875 27.511719 249.34375 30.449219 250.773438 33.617188 C 252.203125 36.785156 253.273438 40.191406 253.960938 43.699219 C 254.652344 47.203125 254.960938 50.808594 254.894531 54.464844 C 254.828125 58.121094 254.386719 61.824219 253.640625 64.332031 C 252.898438 66.839844 251.855469 68.15625 250.757812 68.984375 C 249.660156 69.8125 248.511719 70.152344 247.207031 70.101562 Z M 251.308594 106.59375 C 252.300781 105.664062 253.695312 104.902344 255.285156 104.703125 C 256.875 104.503906 258.660156 104.871094 260.292969 105.9375 C 261.925781 107.003906 263.402344 108.769531 265.296875 110.789062 C 267.1875 112.804688 269.492188 115.070312 272.261719 117.082031 C 275.027344 119.097656 278.261719 120.859375 281.378906 122 C 284.5 123.132812 287.507812 123.644531 290.394531 124.011719 C 293.285156 124.375 296.058594 124.597656 298.085938 125.136719 C 300.117188 125.675781 301.410156 126.53125 302.046875 127.613281 C 302.683594 128.691406 302.671875 129.996094 302.410156 131.410156 C 302.148438 132.824219 301.640625 134.347656 300.671875 135.570312 C 299.699219 136.792969 298.261719 137.714844 295.738281 138.210938 C 293.214844 138.707031 289.605469 138.78125 286.058594 138.40625 C 282.511719 138.035156 279.03125 137.210938 275.644531 135.949219 C 272.253906 134.6875 268.957031 132.984375 265.863281 130.929688 C 262.769531 128.871094 259.878906 126.457031 257.226562 123.734375 C 254.578125 121.007812 252.167969 117.96875 250.859375 115.582031 C 249.550781 113.195312 249.339844 111.457031 249.535156 110.039062 C 249.726562 108.621094 250.316406 107.523438 251.308594 106.59375 Z M 251.308594 106.59375 " fill-opacity="1" fill-rule="evenodd"/></g><g clip-path="url(#2f237ac621)"><path fill="#ff78f4" d="M 26.054688 179.039062 C 44.152344 230.398438 62.25 281.761719 71.449219 307.78125 C 80.648438 333.804688 80.945312 334.484375 81.703125 335.609375 C 82.457031 336.730469 83.671875 338.289062 85.796875 340.140625 C 87.925781 341.996094 90.972656 344.140625 95.207031 346.335938 C 99.4375 348.527344 104.863281 350.765625 111.433594 352.820312 C 118.007812 354.878906 125.726562 356.757812 133.992188 358.265625 C 142.253906 359.773438 151.0625 360.910156 161.433594 361.648438 C 171.808594 362.390625 183.746094 362.730469 193.566406 362.675781 C 203.390625 362.621094 211.101562 362.175781 219.101562 361.371094 C 227.101562 360.570312 235.390625 359.410156 244 357.628906 C 252.605469 355.84375 261.53125 353.4375 268.003906 351.304688 C 274.480469 349.171875 278.507812 347.308594 282.15625 345.042969 C 285.804688 342.777344 289.070312 340.105469 291.152344 337.851562 C 293.234375 335.597656 294.136719 333.761719 303.601562 307.144531 C 313.0625 280.53125 331.089844 229.136719 340.105469 203.441406 C 349.117188 177.746094 349.117188 177.746094 348.609375 178.554688 C 348.101562 179.363281 347.089844 180.980469 345.050781 182.382812 C 343.011719 183.785156 339.949219 184.96875 337.335938 186.480469 C 334.726562 187.996094 332.574219 189.832031 330.453125 192.488281 C 328.328125 195.144531 326.242188 198.617188 324.347656 201.335938 C 322.453125 204.054688 320.75 206.023438 319.011719 207.566406 C 317.273438 209.113281 315.496094 210.230469 313.644531 210.78125 C 311.792969 211.328125 309.867188 211.304688 306.421875 210.203125 C 302.976562 209.097656 298.007812 206.917969 293.820312 206.472656 C 289.632812 206.03125 286.222656 207.320312 282.949219 209.351562 C 279.675781 211.382812 276.535156 214.152344 273.148438 216.3125 C 269.765625 218.46875 266.132812 220.019531 261.964844 219.9375 C 257.796875 219.851562 253.09375 218.136719 249.523438 216.601562 C 245.953125 215.066406 243.515625 213.710938 239.78125 213.933594 C 236.046875 214.160156 231.011719 215.960938 226.148438 218.019531 C 221.285156 220.078125 216.59375 222.390625 212.507812 223.019531 C 208.425781 223.652344 204.953125 222.601562 201.65625 221 C 198.359375 219.398438 195.246094 217.25 192.894531 216.375 C 190.542969 215.503906 188.960938 215.90625 185.714844 217.054688 C 182.472656 218.199219 177.566406 220.089844 173.519531 221.488281 C 169.476562 222.886719 166.289062 223.792969 163.027344 223.78125 C 159.769531 223.769531 156.4375 222.839844 153.183594 221.234375 C 149.929688 219.632812 146.75 217.359375 143.554688 215.765625 C 140.355469 214.175781 137.140625 213.265625 133.847656 213.394531 C 130.558594 213.523438 127.191406 214.691406 123.851562 216.246094 C 120.511719 217.800781 117.203125 219.742188 114.402344 220.414062 C 111.605469 221.085938 109.320312 220.492188 106.1875 218.941406 C 103.050781 217.390625 99.058594 214.882812 96.125 213.042969 C 93.191406 211.203125 91.316406 210.035156 89.433594 208.789062 C 87.554688 207.539062 85.667969 206.21875 83.234375 205.804688 C 80.800781 205.390625 77.820312 205.882812 74.488281 207.035156 C 71.15625 208.1875 67.476562 209.996094 64.851562 210.609375 C 62.222656 211.222656 60.648438 210.636719 58.054688 208.382812 C 55.457031 206.125 51.839844 202.191406 49.058594 198.722656 C 46.277344 195.25 44.332031 192.238281 41.878906 189.832031 C 39.425781 187.429688 36.460938 185.636719 33.738281 183.9375 C 31.015625 182.242188 28.535156 180.640625 26.054688 179.039062 Z M 26.054688 179.039062 " fill-opacity="1" fill-rule="evenodd"/></g><g clip-path="url(#de3ac9e106)"><path fill="#ff45f0" d="M 25.867188 178.402344 C 26.0625 177.050781 26.261719 175.703125 26.785156 174.605469 C 27.304688 173.511719 28.152344 172.671875 30.109375 171.453125 C 32.0625 170.238281 35.128906 168.644531 37.5 167.203125 C 38.390625 166.660156 39.179688 166.140625 40.699219 165.261719 C 40.757812 174.105469 41.601562 182.765625 43.148438 191.175781 L 43.160156 191.1875 C 42.742188 190.714844 42.320312 190.265625 41.878906 189.832031 C 39.425781 187.429688 36.460938 185.636719 33.738281 183.9375 L 33.617188 183.863281 L 33.609375 183.859375 L 33.496094 183.789062 L 33.484375 183.78125 L 33.375 183.710938 L 33.355469 183.703125 L 33.253906 183.636719 L 33.230469 183.621094 L 33.132812 183.5625 L 33.105469 183.542969 L 33.015625 183.488281 L 32.980469 183.464844 L 32.894531 183.410156 L 32.855469 183.386719 L 32.773438 183.335938 L 32.726562 183.308594 L 32.65625 183.261719 L 32.605469 183.230469 L 32.535156 183.1875 L 32.480469 183.152344 L 32.417969 183.113281 L 32.355469 183.070312 L 32.300781 183.039062 L 32.230469 182.992188 L 32.183594 182.964844 L 32.109375 182.917969 L 32.0625 182.890625 L 31.984375 182.839844 L 31.945312 182.816406 L 31.859375 182.761719 L 31.828125 182.742188 L 31.738281 182.683594 L 31.710938 182.667969 L 31.617188 182.605469 L 31.59375 182.59375 L 31.492188 182.527344 L 31.480469 182.519531 L 31.371094 182.449219 L 31.363281 182.445312 L 31.25 182.375 L 31.246094 182.371094 L 31.128906 182.296875 L 31.015625 182.222656 L 31.007812 182.21875 L 30.898438 182.152344 L 30.886719 182.140625 L 30.785156 182.078125 L 30.765625 182.066406 L 30.667969 182.003906 L 30.644531 181.988281 L 30.554688 181.929688 L 30.523438 181.910156 L 30.4375 181.859375 L 30.402344 181.835938 L 30.324219 181.785156 L 30.285156 181.757812 L 30.210938 181.710938 L 30.164062 181.683594 L 30.097656 181.640625 L 30.042969 181.605469 L 29.984375 181.566406 L 29.925781 181.53125 L 29.867188 181.492188 L 29.804688 181.453125 L 29.753906 181.421875 L 29.6875 181.378906 L 29.640625 181.347656 L 29.566406 181.300781 L 29.527344 181.277344 L 29.449219 181.226562 L 29.332031 181.148438 L 29.300781 181.132812 L 29.210938 181.074219 L 29.1875 181.058594 L 28.976562 180.921875 L 28.964844 180.914062 L 28.859375 180.847656 L 28.851562 180.84375 L 28.738281 180.769531 L 28.625 180.699219 L 28.621094 180.695312 L 28.515625 180.625 L 28.503906 180.621094 L 28.402344 180.554688 L 28.386719 180.542969 L 28.289062 180.480469 L 28.269531 180.46875 L 28.179688 180.410156 L 28.152344 180.394531 L 28.066406 180.339844 L 28.035156 180.316406 L 27.957031 180.265625 L 27.917969 180.242188 L 27.84375 180.195312 L 27.800781 180.167969 L 27.730469 180.121094 L 27.683594 180.09375 L 27.621094 180.050781 L 27.566406 180.015625 L 27.507812 179.980469 L 27.449219 179.941406 L 27.398438 179.90625 L 27.335938 179.867188 L 27.285156 179.835938 L 27.21875 179.792969 L 27.175781 179.765625 L 27.101562 179.714844 L 27.066406 179.691406 L 26.984375 179.640625 L 26.953125 179.621094 L 26.867188 179.566406 L 26.84375 179.550781 L 26.75 179.492188 L 26.730469 179.476562 L 26.636719 179.414062 L 26.621094 179.40625 L 26.519531 179.339844 L 26.507812 179.335938 L 26.402344 179.265625 L 26.398438 179.261719 Z M 335.90625 165.46875 C 340.328125 168.164062 341.96875 168.808594 343.292969 169.5625 C 345.207031 170.65625 346.460938 171.976562 347.265625 173.476562 C 348.070312 174.976562 348.425781 176.65625 348.785156 178.335938 L 348.785156 178.339844 L 348.785156 178.335938 C 348.78125 178.335938 348.78125 178.332031 348.78125 178.332031 L 348.777344 178.332031 C 348.777344 178.332031 348.773438 178.332031 348.773438 178.332031 L 348.765625 178.332031 L 348.765625 178.335938 L 348.761719 178.335938 L 348.75 178.347656 L 348.75 178.351562 L 348.746094 178.351562 L 348.742188 178.355469 L 348.742188 178.359375 L 348.738281 178.363281 L 348.738281 178.367188 L 348.734375 178.367188 L 348.734375 178.371094 L 348.730469 178.371094 L 348.726562 178.375 L 348.726562 178.378906 L 348.714844 178.390625 L 348.714844 178.398438 L 348.699219 178.414062 L 348.699219 178.417969 L 348.695312 178.421875 L 348.695312 178.425781 L 348.6875 178.433594 L 348.683594 178.441406 L 348.675781 178.449219 L 348.675781 178.453125 L 348.667969 178.460938 L 348.664062 178.46875 L 348.660156 178.472656 L 348.65625 178.480469 L 348.65625 178.484375 L 348.652344 178.484375 L 348.648438 178.492188 L 348.648438 178.5 L 348.644531 178.503906 L 348.640625 178.511719 L 348.632812 178.515625 L 348.632812 178.519531 L 348.628906 178.523438 L 348.625 178.53125 L 348.621094 178.535156 L 348.613281 178.550781 L 348.609375 178.554688 C 348.101562 179.363281 347.089844 180.980469 345.050781 182.382812 C 343.011719 183.785156 339.949219 184.96875 337.335938 186.480469 C 336.085938 187.207031 334.9375 188.007812 333.851562 188.9375 C 335.132812 181.296875 335.84375 173.457031 335.90625 165.46875 Z M 332.566406 190.121094 C 332.503906 190.179688 332.445312 190.238281 332.386719 190.300781 C 332.445312 190.238281 332.503906 190.179688 332.566406 190.121094 Z M 310.210938 211.074219 C 309.359375 214.933594 308.167969 220.320312 306.480469 227.875 C 300.597656 254.230469 288.683594 306.9375 282.726562 333.289062 C 281.5 338.714844 280.527344 343.019531 279.765625 346.433594 C 280.59375 345.984375 281.382812 345.523438 282.15625 345.042969 C 284.863281 343.363281 287.359375 341.457031 289.316406 339.667969 C 289.996094 336.765625 290.792969 333.339844 291.738281 329.292969 C 297.878906 302.917969 310.167969 250.167969 316.3125 223.792969 C 318.183594 215.75 319.484375 210.164062 320.359375 206.277344 C 319.910156 206.738281 319.460938 207.167969 319.011719 207.566406 C 317.273438 209.113281 315.496094 210.230469 313.644531 210.78125 C 312.609375 211.085938 311.550781 211.214844 310.210938 211.074219 Z M 83.894531 338.324219 C 84.429688 338.890625 85.058594 339.5 85.796875 340.140625 C 87.925781 341.996094 90.972656 344.140625 95.207031 346.335938 C 97.171875 347.351562 99.394531 348.378906 101.871094 349.394531 C 101.191406 345.746094 100.308594 341.207031 99.183594 335.5625 C 93.949219 309.210938 83.570312 258.765625 73.03125 207.566406 C 70.121094 208.683594 67.097656 210.082031 64.851562 210.609375 C 62.222656 211.21875 60.648438 210.636719 58.054688 208.382812 C 56.597656 207.117188 54.820312 205.324219 53.050781 203.382812 C 52.035156 204.398438 51.214844 205.609375 50.390625 206.820312 C 63.558594 258.496094 76.722656 310.175781 83.304688 336.011719 Z M 125.109375 356.457031 C 127.972656 357.101562 130.945312 357.710938 133.988281 358.265625 C 137.464844 358.898438 141.03125 359.46875 144.773438 359.96875 C 144.566406 358.113281 144.339844 356.117188 144.097656 353.964844 C 140.722656 323.992188 133.972656 264.046875 129.828125 234.292969 C 128.601562 225.480469 127.601562 219.316406 126.703125 215.027344 C 125.753906 215.394531 124.800781 215.804688 123.851562 216.246094 C 120.511719 217.800781 117.203125 219.742188 114.402344 220.414062 C 111.605469 221.085938 109.320312 220.492188 106.1875 218.941406 C 105.726562 218.714844 105.253906 218.464844 104.765625 218.203125 C 104.992188 222.828125 105.96875 230.425781 107.832031 243.335938 C 112.023438 272.339844 120.703125 328.136719 125.042969 356.039062 Z M 162.535156 361.726562 C 168.824219 362.152344 175.632812 362.4375 182.160156 362.578125 C 182.148438 359.097656 182.101562 354.714844 182.039062 349.191406 C 181.746094 322.394531 181.160156 268.804688 180.863281 242.011719 C 180.722656 229.160156 180.648438 222.476562 180.21875 219.066406 C 177.992188 219.890625 175.636719 220.757812 173.519531 221.488281 C 169.476562 222.886719 166.289062 223.792969 163.027344 223.78125 C 161.242188 223.777344 159.4375 223.492188 157.632812 222.976562 C 156.65625 226.4375 156.398438 233.21875 156.773438 247.15625 C 157.476562 273.371094 160.417969 324.898438 161.890625 350.664062 C 162.140625 355.058594 162.347656 358.703125 162.535156 361.726562 Z M 199.34375 362.59375 C 206.554688 362.425781 212.734375 362.011719 219.101562 361.371094 C 220.769531 361.203125 222.453125 361.023438 224.144531 360.820312 C 224.402344 357.230469 224.675781 352.6875 225.023438 346.921875 C 226.675781 319.625 229.976562 265.035156 231.628906 237.738281 C 232.34375 225.914062 232.75 219.214844 232.609375 215.542969 C 230.507812 216.238281 228.308594 217.105469 226.148438 218.019531 C 221.285156 220.078125 216.59375 222.390625 212.507812 223.019531 C 210.296875 223.363281 208.261719 223.210938 206.335938 222.742188 C 205.59375 226.171875 205.289062 232.714844 204.679688 245.984375 C 203.476562 272.160156 201.070312 324.515625 199.867188 350.691406 C 199.644531 355.484375 199.464844 359.398438 199.34375 362.59375 Z M 244.457031 357.53125 C 252.921875 355.761719 261.644531 353.402344 268.003906 351.304688 C 268.300781 351.207031 268.589844 351.109375 268.871094 351.015625 C 269.3125 347.65625 269.824219 343.550781 270.449219 338.511719 C 273.835938 311.199219 280.609375 256.570312 283.996094 229.257812 C 285.40625 217.886719 286.226562 211.253906 286.382812 207.566406 C 285.207031 208.050781 284.070312 208.65625 282.949219 209.351562 C 279.675781 211.382812 276.535156 214.152344 273.148438 216.3125 C 269.765625 218.46875 266.132812 220.019531 261.964844 219.9375 C 261.558594 219.929688 261.148438 219.90625 260.734375 219.867188 C 259.714844 223.257812 258.984375 229.664062 257.425781 243.359375 C 254.5 269.089844 248.644531 320.550781 245.71875 346.28125 C 245.207031 350.773438 244.785156 354.476562 244.457031 357.53125 Z M 244.457031 357.53125 " fill-opacity="1" fill-rule="evenodd"/></g></svg>