<svg xmlns="http://www.w3.org/2000/svg" xmlns:xlink="http://www.w3.org/1999/xlink" width="500" zoomAndPan="magnify" viewBox="0 0 375 374.999991" height="500" preserveAspectRatio="xMidYMid meet" version="1.0"><defs><clipPath id="afd5c75832"><path d="M 56 63 L 295 63 L 295 352 L 56 352 Z M 56 63 " clip-rule="nonzero"/></clipPath><clipPath id="c565745200"><path d="M 379.375 281.34375 L 81.925781 373.003906 L -4.210938 93.476562 L 293.234375 1.816406 Z M 379.375 281.34375 " clip-rule="nonzero"/></clipPath><clipPath id="bfdf0ecb79"><path d="M 379.375 281.34375 L 81.925781 373.003906 L -4.210938 93.476562 L 293.234375 1.816406 Z M 379.375 281.34375 " clip-rule="nonzero"/></clipPath><clipPath id="ff517b06e9"><path d="M 379.375 281.34375 L 81.925781 373.003906 L -4.210938 93.476562 L 293.234375 1.816406 Z M 379.375 281.34375 " clip-rule="nonzero"/></clipPath><clipPath id="1c3f9a0d47"><path d="M 160 63 L 295 63 L 295 195 L 160 195 Z M 160 63 " clip-rule="nonzero"/></clipPath><clipPath id="cd8b20ea44"><path d="M 379.375 281.34375 L 81.925781 373.003906 L -4.210938 93.476562 L 293.234375 1.816406 Z M 379.375 281.34375 " clip-rule="nonzero"/></clipPath><clipPath id="d791f04523"><path d="M 379.375 281.34375 L 81.925781 373.003906 L -4.210938 93.476562 L 293.234375 1.816406 Z M 379.375 281.34375 " clip-rule="nonzero"/></clipPath><clipPath id="984a0de884"><path d="M 379.375 281.34375 L 81.925781 373.003906 L -4.210938 93.476562 L 293.234375 1.816406 Z M 379.375 281.34375 " clip-rule="nonzero"/></clipPath><clipPath id="4f131bbec1"><path d="M 152 129 L 273 129 L 273 322 L 152 322 Z M 152 129 " clip-rule="nonzero"/></clipPath><clipPath id="76fd36561d"><path d="M 379.375 281.34375 L 81.925781 373.003906 L -4.210938 93.476562 L 293.234375 1.816406 Z M 379.375 281.34375 " clip-rule="nonzero"/></clipPath><clipPath id="1e6da9a29c"><path d="M 379.375 281.34375 L 81.925781 373.003906 L -4.210938 93.476562 L 293.234375 1.816406 Z M 379.375 281.34375 " clip-rule="nonzero"/></clipPath><clipPath id="03efbfc643"><path d="M 379.375 281.34375 L 81.925781 373.003906 L -4.210938 93.476562 L 293.234375 1.816406 Z M 379.375 281.34375 " clip-rule="nonzero"/></clipPath><clipPath id="990cc96d5d"><path d="M 100 83 L 196 83 L 196 236 L 100 236 Z M 100 83 " clip-rule="nonzero"/></clipPath><clipPath id="9c204502b0"><path d="M 379.375 281.34375 L 81.925781 373.003906 L -4.210938 93.476562 L 293.234375 1.816406 Z M 379.375 281.34375 " clip-rule="nonzero"/></clipPath><clipPath id="f359268a55"><path d="M 379.375 281.34375 L 81.925781 373.003906 L -4.210938 93.476562 L 293.234375 1.816406 Z M 379.375 281.34375 " clip-rule="nonzero"/></clipPath><clipPath id="ec01eb37b6"><path d="M 379.375 281.34375 L 81.925781 373.003906 L -4.210938 93.476562 L 293.234375 1.816406 Z M 379.375 281.34375 " clip-rule="nonzero"/></clipPath><clipPath id="5c8c9ec85d"><path d="M 82 290 L 145 290 L 145 332 L 82 332 Z M 82 290 " clip-rule="nonzero"/></clipPath><clipPath id="a63aaf7247"><path d="M 379.375 281.34375 L 81.925781 373.003906 L -4.210938 93.476562 L 293.234375 1.816406 Z M 379.375 281.34375 " clip-rule="nonzero"/></clipPath><clipPath id="710ca6e98a"><path d="M 379.375 281.34375 L 81.925781 373.003906 L -4.210938 93.476562 L 293.234375 1.816406 Z M 379.375 281.34375 " clip-rule="nonzero"/></clipPath><clipPath id="4734a978ac"><path d="M 379.375 281.34375 L 81.925781 373.003906 L -4.210938 93.476562 L 293.234375 1.816406 Z M 379.375 281.34375 " clip-rule="nonzero"/></clipPath><clipPath id="003d75dfa2"><path d="M 266 105 L 279 105 L 279 122 L 266 122 Z M 266 105 " clip-rule="nonzero"/></clipPath><clipPath id="9abde0f0f5"><path d="M 379.375 281.34375 L 81.925781 373.003906 L -4.210938 93.476562 L 293.234375 1.816406 Z M 379.375 281.34375 " clip-rule="nonzero"/></clipPath><clipPath id="b67f7e76e9"><path d="M 379.375 281.34375 L 81.925781 373.003906 L -4.210938 93.476562 L 293.234375 1.816406 Z M 379.375 281.34375 " clip-rule="nonzero"/></clipPath><clipPath id="69f7d4af62"><path d="M 379.375 281.34375 L 81.925781 373.003906 L -4.210938 93.476562 L 293.234375 1.816406 Z M 379.375 281.34375 " clip-rule="nonzero"/></clipPath><clipPath id="bc6e06e772"><path d="M 204 75 L 227 75 L 227 83 L 204 83 Z M 204 75 " clip-rule="nonzero"/></clipPath><clipPath id="19f2c7e09b"><path d="M 379.375 281.34375 L 81.925781 373.003906 L -4.210938 93.476562 L 293.234375 1.816406 Z M 379.375 281.34375 " clip-rule="nonzero"/></clipPath><clipPath id="a8229f6ab4"><path d="M 379.375 281.34375 L 81.925781 373.003906 L -4.210938 93.476562 L 293.234375 1.816406 Z M 379.375 281.34375 " clip-rule="nonzero"/></clipPath><clipPath id="0f3385363f"><path d="M 379.375 281.34375 L 81.925781 373.003906 L -4.210938 93.476562 L 293.234375 1.816406 Z M 379.375 281.34375 " clip-rule="nonzero"/></clipPath><clipPath id="c255e42f59"><path d="M 251 103 L 255 103 L 255 115 L 251 115 Z M 251 103 " clip-rule="nonzero"/></clipPath><clipPath id="6248177008"><path d="M 379.375 281.34375 L 81.925781 373.003906 L -4.210938 93.476562 L 293.234375 1.816406 Z M 379.375 281.34375 " clip-rule="nonzero"/></clipPath><clipPath id="feae44ed3b"><path d="M 379.375 281.34375 L 81.925781 373.003906 L -4.210938 93.476562 L 293.234375 1.816406 Z M 379.375 281.34375 " clip-rule="nonzero"/></clipPath><clipPath id="9cd1d25d30"><path d="M 379.375 281.34375 L 81.925781 373.003906 L -4.210938 93.476562 L 293.234375 1.816406 Z M 379.375 281.34375 " clip-rule="nonzero"/></clipPath><clipPath id="b08757268c"><path d="M 215 86 L 227 86 L 227 89 L 215 89 Z M 215 86 " clip-rule="nonzero"/></clipPath><clipPath id="e1bb739062"><path d="M 379.375 281.34375 L 81.925781 373.003906 L -4.210938 93.476562 L 293.234375 1.816406 Z M 379.375 281.34375 " clip-rule="nonzero"/></clipPath><clipPath id="d5eca1d526"><path d="M 379.375 281.34375 L 81.925781 373.003906 L -4.210938 93.476562 L 293.234375 1.816406 Z M 379.375 281.34375 " clip-rule="nonzero"/></clipPath><clipPath id="224d13c2df"><path d="M 379.375 281.34375 L 81.925781 373.003906 L -4.210938 93.476562 L 293.234375 1.816406 Z M 379.375 281.34375 " clip-rule="nonzero"/></clipPath><clipPath id="a0eb07b119"><path d="M 238 97 L 242 97 L 242 106 L 238 106 Z M 238 97 " clip-rule="nonzero"/></clipPath><clipPath id="40dda62281"><path d="M 379.375 281.34375 L 81.925781 373.003906 L -4.210938 93.476562 L 293.234375 1.816406 Z M 379.375 281.34375 " clip-rule="nonzero"/></clipPath><clipPath id="7d70c2726f"><path d="M 379.375 281.34375 L 81.925781 373.003906 L -4.210938 93.476562 L 293.234375 1.816406 Z M 379.375 281.34375 " clip-rule="nonzero"/></clipPath><clipPath id="572c2f7dde"><path d="M 379.375 281.34375 L 81.925781 373.003906 L -4.210938 93.476562 L 293.234375 1.816406 Z M 379.375 281.34375 " clip-rule="nonzero"/></clipPath><clipPath id="8085a851d5"><path d="M 226 23 L 316 23 L 316 98 L 226 98 Z M 226 23 " clip-rule="nonzero"/></clipPath><clipPath id="fdbfc0db54"><path d="M 379.375 281.34375 L 81.925781 373.003906 L -4.210938 93.476562 L 293.234375 1.816406 Z M 379.375 281.34375 " clip-rule="nonzero"/></clipPath><clipPath id="9358fc7a5c"><path d="M 379.375 281.34375 L 81.925781 373.003906 L -4.210938 93.476562 L 293.234375 1.816406 Z M 379.375 281.34375 " clip-rule="nonzero"/></clipPath><clipPath id="db57b90a36"><path d="M 379.375 281.34375 L 81.925781 373.003906 L -4.210938 93.476562 L 293.234375 1.816406 Z M 379.375 281.34375 " clip-rule="nonzero"/></clipPath><clipPath id="c692db038a"><path d="M 271 74 L 299 74 L 299 77 L 271 77 Z M 271 74 " clip-rule="nonzero"/></clipPath><clipPath id="6af8549124"><path d="M 379.375 281.34375 L 81.925781 373.003906 L -4.210938 93.476562 L 293.234375 1.816406 Z M 379.375 281.34375 " clip-rule="nonzero"/></clipPath><clipPath id="8285778eba"><path d="M 379.375 281.34375 L 81.925781 373.003906 L -4.210938 93.476562 L 293.234375 1.816406 Z M 379.375 281.34375 " clip-rule="nonzero"/></clipPath><clipPath id="5fc2436ea4"><path d="M 379.375 281.34375 L 81.925781 373.003906 L -4.210938 93.476562 L 293.234375 1.816406 Z M 379.375 281.34375 " clip-rule="nonzero"/></clipPath><clipPath id="d15960573a"><path d="M 265 55 L 283 55 L 283 74 L 265 74 Z M 265 55 " clip-rule="nonzero"/></clipPath><clipPath id="b1e7b7961f"><path d="M 379.375 281.34375 L 81.925781 373.003906 L -4.210938 93.476562 L 293.234375 1.816406 Z M 379.375 281.34375 " clip-rule="nonzero"/></clipPath><clipPath id="007d7ade04"><path d="M 379.375 281.34375 L 81.925781 373.003906 L -4.210938 93.476562 L 293.234375 1.816406 Z M 379.375 281.34375 " clip-rule="nonzero"/></clipPath><clipPath id="60030b4e14"><path d="M 379.375 281.34375 L 81.925781 373.003906 L -4.210938 93.476562 L 293.234375 1.816406 Z M 379.375 281.34375 " clip-rule="nonzero"/></clipPath><clipPath id="cb8060a2c3"><path d="M 255 46 L 263 46 L 263 72 L 255 72 Z M 255 46 " clip-rule="nonzero"/></clipPath><clipPath id="5167ee106f"><path d="M 379.375 281.34375 L 81.925781 373.003906 L -4.210938 93.476562 L 293.234375 1.816406 Z M 379.375 281.34375 " clip-rule="nonzero"/></clipPath><clipPath id="ebce5b749c"><path d="M 379.375 281.34375 L 81.925781 373.003906 L -4.210938 93.476562 L 293.234375 1.816406 Z M 379.375 281.34375 " clip-rule="nonzero"/></clipPath><clipPath id="e3881315de"><path d="M 379.375 281.34375 L 81.925781 373.003906 L -4.210938 93.476562 L 293.234375 1.816406 Z M 379.375 281.34375 " clip-rule="nonzero"/></clipPath><clipPath id="e411e16739"><path d="M 240 41 L 248 41 L 248 70 L 240 70 Z M 240 41 " clip-rule="nonzero"/></clipPath><clipPath id="c3d8e72dd1"><path d="M 379.375 281.34375 L 81.925781 373.003906 L -4.210938 93.476562 L 293.234375 1.816406 Z M 379.375 281.34375 " clip-rule="nonzero"/></clipPath><clipPath id="c59f922f93"><path d="M 379.375 281.34375 L 81.925781 373.003906 L -4.210938 93.476562 L 293.234375 1.816406 Z M 379.375 281.34375 " clip-rule="nonzero"/></clipPath><clipPath id="a9f1970807"><path d="M 379.375 281.34375 L 81.925781 373.003906 L -4.210938 93.476562 L 293.234375 1.816406 Z M 379.375 281.34375 " clip-rule="nonzero"/></clipPath><clipPath id="c51e6c5373"><path d="M 246 79 L 260 79 L 260 89 L 246 89 Z M 246 79 " clip-rule="nonzero"/></clipPath><clipPath id="11dd7f7ff2"><path d="M 379.375 281.34375 L 81.925781 373.003906 L -4.210938 93.476562 L 293.234375 1.816406 Z M 379.375 281.34375 " clip-rule="nonzero"/></clipPath><clipPath id="43e32bd660"><path d="M 379.375 281.34375 L 81.925781 373.003906 L -4.210938 93.476562 L 293.234375 1.816406 Z M 379.375 281.34375 " clip-rule="nonzero"/></clipPath><clipPath id="67027b781d"><path d="M 379.375 281.34375 L 81.925781 373.003906 L -4.210938 93.476562 L 293.234375 1.816406 Z M 379.375 281.34375 " clip-rule="nonzero"/></clipPath></defs><g clip-path="url(#afd5c75832)"><g clip-path="url(#c565745200)"><g clip-path="url(#bfdf0ecb79)"><g clip-path="url(#ff517b06e9)"><path fill="#a67c52" d="M 198.382812 63.257812 C 235.40625 69.300781 272.800781 92.566406 294.652344 123.15625 L 294.886719 123.488281 L 153.207031 351.039062 L 139.5625 336.914062 C 121.976562 318.710938 98.996094 304.402344 74.929688 296.664062 L 56.6875 290.8125 Z M 198.382812 63.257812 " fill-opacity="1" fill-rule="nonzero"/></g></g></g></g><g clip-path="url(#1c3f9a0d47)"><g clip-path="url(#cd8b20ea44)"><g clip-path="url(#d791f04523)"><g clip-path="url(#984a0de884)"><path fill="#4d2812" d="M 169.34375 119.609375 C 172.695312 122.21875 175.699219 125.707031 176.636719 129.949219 C 177.570312 134.195312 176.609375 138.535156 175.214844 142.519531 C 171.84375 152.148438 165.824219 160.597656 162.378906 170.195312 C 160.785156 174.625 160 179.132812 160.75 183.820312 C 161.316406 187.316406 162.761719 190.886719 165.949219 192.753906 C 168.832031 194.433594 172.382812 194.386719 175.574219 193.820312 C 179.472656 193.125 183.21875 191.640625 186.777344 189.933594 C 190.453125 188.148438 193.988281 186.121094 197.382812 183.851562 C 198.851562 182.878906 200.289062 181.871094 201.699219 180.824219 C 203.296875 179.636719 204.78125 178.324219 206.332031 177.070312 C 210.066406 174.054688 214.0625 171.292969 218.382812 169.171875 C 222.226562 167.289062 226.417969 165.882812 230.726562 165.734375 C 232.777344 165.664062 234.78125 165.929688 236.738281 166.535156 C 238.699219 167.140625 240.507812 168.046875 242.160156 169.261719 C 246.445312 172.421875 249.324219 177.148438 251.425781 181.960938 C 252.46875 184.375 253.261719 186.867188 253.808594 189.4375 L 294.886719 123.488281 L 294.652344 123.15625 C 272.800781 92.566406 235.40625 69.300781 198.382812 63.257812 L 165.011719 116.84375 C 166.542969 117.628906 167.984375 118.550781 169.34375 119.609375 Z M 169.34375 119.609375 " fill-opacity="1" fill-rule="nonzero"/></g></g></g></g><g clip-path="url(#4f131bbec1)"><g clip-path="url(#76fd36561d)"><g clip-path="url(#1e6da9a29c)"><g clip-path="url(#03efbfc643)"><path fill="#efb078" d="M 152.285156 321.730469 C 152.222656 321.691406 152.179688 321.609375 152.164062 321.492188 C 152.144531 321.375 152.152344 321.21875 152.183594 321.023438 C 152.214844 320.828125 152.269531 320.59375 152.347656 320.320312 C 152.425781 320.050781 152.53125 319.738281 152.660156 319.390625 C 152.785156 319.042969 152.9375 318.660156 153.113281 318.238281 C 153.285156 317.8125 153.484375 317.355469 153.707031 316.855469 C 153.929688 316.359375 154.175781 315.828125 154.445312 315.257812 C 154.714844 314.6875 155.007812 314.082031 155.320312 313.441406 C 155.636719 312.800781 155.972656 312.125 156.335938 311.414062 C 156.695312 310.703125 157.078125 309.957031 157.484375 309.175781 C 157.886719 308.398438 158.316406 307.585938 158.765625 306.742188 C 159.210938 305.894531 159.683594 305.015625 160.171875 304.105469 C 160.664062 303.195312 161.175781 302.257812 161.707031 301.285156 C 162.242188 300.3125 162.792969 299.308594 163.363281 298.277344 C 163.9375 297.246094 164.527344 296.1875 165.140625 295.097656 C 165.75 294.007812 166.378906 292.890625 167.027344 291.746094 C 167.675781 290.605469 168.339844 289.433594 169.023438 288.238281 C 169.707031 287.042969 170.410156 285.824219 171.125 284.578125 C 171.84375 283.332031 172.578125 282.066406 173.328125 280.777344 C 174.078125 279.484375 174.839844 278.171875 175.621094 276.839844 C 176.402344 275.503906 177.195312 274.152344 178.003906 272.777344 C 178.8125 271.40625 179.632812 270.015625 180.46875 268.605469 C 181.304688 267.195312 182.152344 265.769531 183.011719 264.324219 C 183.871094 262.882812 184.742188 261.425781 185.625 259.953125 C 186.503906 258.480469 187.398438 256.996094 188.300781 255.496094 C 189.203125 254 190.113281 252.488281 191.035156 250.96875 C 191.953125 249.449219 192.882812 247.917969 193.820312 246.378906 C 194.757812 244.839844 195.699219 243.292969 196.648438 241.738281 C 197.601562 240.183594 198.554688 238.625 199.515625 237.058594 C 200.480469 235.492188 201.445312 233.925781 202.414062 232.351562 C 203.386719 230.777344 204.359375 229.203125 205.335938 227.625 C 206.316406 226.050781 207.292969 224.472656 208.277344 222.898438 C 209.257812 221.320312 210.242188 219.746094 211.226562 218.171875 C 212.210938 216.601562 213.191406 215.03125 214.175781 213.464844 C 215.160156 211.902344 216.140625 210.34375 217.121094 208.789062 C 218.105469 207.234375 219.082031 205.6875 220.058594 204.152344 C 221.035156 202.613281 222.003906 201.082031 222.972656 199.5625 C 223.941406 198.042969 224.90625 196.535156 225.863281 195.039062 C 226.824219 193.542969 227.773438 192.058594 228.722656 190.589844 C 229.667969 189.117188 230.605469 187.660156 231.539062 186.222656 C 232.472656 184.78125 233.394531 183.355469 234.3125 181.949219 C 235.226562 180.539062 236.132812 179.152344 237.03125 177.78125 C 237.925781 176.410156 238.8125 175.058594 239.6875 173.726562 C 240.5625 172.394531 241.429688 171.085938 242.28125 169.796875 C 243.132812 168.507812 243.972656 167.242188 244.800781 166 C 245.628906 164.757812 246.445312 163.542969 247.242188 162.347656 C 248.042969 161.15625 248.832031 159.988281 249.601562 158.847656 C 250.375 157.707031 251.128906 156.59375 251.871094 155.507812 C 252.609375 154.421875 253.335938 153.367188 254.042969 152.335938 C 254.75 151.308594 255.441406 150.308594 256.113281 149.339844 C 256.789062 148.371094 257.445312 147.4375 258.082031 146.527344 C 258.71875 145.621094 259.335938 144.75 259.9375 143.90625 C 260.539062 143.066406 261.117188 142.257812 261.679688 141.480469 C 262.238281 140.707031 262.78125 139.964844 263.300781 139.257812 C 263.820312 138.550781 264.320312 137.878906 264.800781 137.242188 C 265.277344 136.601562 265.738281 136.003906 266.171875 135.4375 C 266.609375 134.871094 267.023438 134.339844 267.417969 133.847656 C 267.808594 133.355469 268.179688 132.902344 268.527344 132.480469 C 268.875 132.0625 269.199219 131.683594 269.5 131.339844 C 269.804688 130.996094 270.082031 130.691406 270.335938 130.421875 C 270.59375 130.15625 270.824219 129.925781 271.035156 129.734375 C 271.242188 129.542969 271.429688 129.390625 271.589844 129.277344 C 271.75 129.164062 271.890625 129.089844 272.003906 129.054688 C 272.117188 129.015625 272.207031 129.019531 272.269531 129.058594 C 272.335938 129.101562 272.378906 129.179688 272.394531 129.296875 C 272.414062 129.417969 272.40625 129.574219 272.375 129.769531 C 272.34375 129.964844 272.289062 130.195312 272.210938 130.46875 C 272.128906 130.742188 272.027344 131.050781 271.898438 131.398438 C 271.773438 131.746094 271.621094 132.128906 271.445312 132.554688 C 271.269531 132.976562 271.070312 133.4375 270.851562 133.933594 C 270.628906 134.429688 270.382812 134.960938 270.113281 135.53125 C 269.84375 136.101562 269.550781 136.707031 269.234375 137.347656 C 268.921875 137.988281 268.582031 138.664062 268.222656 139.375 C 267.863281 140.085938 267.480469 140.832031 267.074219 141.613281 C 266.667969 142.390625 266.242188 143.203125 265.792969 144.050781 C 265.34375 144.894531 264.875 145.773438 264.382812 146.683594 C 263.894531 147.59375 263.382812 148.535156 262.847656 149.503906 C 262.316406 150.476562 261.765625 151.480469 261.191406 152.511719 C 260.621094 153.542969 260.027344 154.605469 259.417969 155.691406 C 258.808594 156.78125 258.175781 157.898438 257.53125 159.042969 C 256.882812 160.1875 256.214844 161.355469 255.53125 162.550781 C 254.847656 163.746094 254.148438 164.964844 253.429688 166.210938 C 252.714844 167.457031 251.980469 168.722656 251.230469 170.015625 C 250.480469 171.304688 249.714844 172.617188 248.9375 173.949219 C 248.15625 175.285156 247.363281 176.636719 246.554688 178.011719 C 245.746094 179.382812 244.921875 180.777344 244.089844 182.1875 C 243.253906 183.59375 242.40625 185.023438 241.546875 186.464844 C 240.6875 187.90625 239.816406 189.363281 238.933594 190.835938 C 238.050781 192.308594 237.160156 193.792969 236.257812 195.292969 C 235.355469 196.789062 234.445312 198.300781 233.523438 199.820312 C 232.601562 201.339844 231.675781 202.871094 230.738281 204.410156 C 229.800781 205.949219 228.859375 207.496094 227.90625 209.050781 C 226.957031 210.605469 226 212.164062 225.039062 213.730469 C 224.078125 215.296875 223.113281 216.867188 222.140625 218.4375 C 221.171875 220.011719 220.195312 221.585938 219.21875 223.164062 C 218.242188 224.738281 217.261719 226.316406 216.28125 227.894531 C 215.300781 229.46875 214.316406 231.042969 213.332031 232.617188 C 212.347656 234.191406 211.363281 235.757812 210.382812 237.324219 C 209.398438 238.886719 208.414062 240.449219 207.433594 242 C 206.453125 243.554688 205.476562 245.101562 204.5 246.640625 C 203.523438 248.175781 202.550781 249.707031 201.582031 251.226562 C 200.617188 252.746094 199.652344 254.253906 198.695312 255.75 C 197.734375 257.246094 196.78125 258.730469 195.835938 260.203125 C 194.890625 261.671875 193.949219 263.128906 193.019531 264.570312 C 192.085938 266.011719 191.160156 267.433594 190.246094 268.84375 C 189.332031 270.25 188.425781 271.640625 187.527344 273.011719 C 186.632812 274.382812 185.746094 275.734375 184.871094 277.0625 C 183.992188 278.394531 183.128906 279.707031 182.277344 280.992188 C 181.421875 282.28125 180.582031 283.546875 179.753906 284.789062 C 178.929688 286.03125 178.113281 287.246094 177.3125 288.441406 C 176.511719 289.632812 175.726562 290.800781 174.957031 291.941406 C 174.183594 293.082031 173.429688 294.195312 172.6875 295.28125 C 171.945312 296.367188 171.222656 297.425781 170.515625 298.453125 C 169.808594 299.480469 169.117188 300.480469 168.441406 301.449219 C 167.769531 302.417969 167.113281 303.355469 166.476562 304.261719 C 165.839844 305.167969 165.21875 306.042969 164.621094 306.882812 C 164.019531 307.726562 163.441406 308.535156 162.878906 309.308594 C 162.316406 310.085938 161.777344 310.824219 161.257812 311.53125 C 160.734375 312.238281 160.234375 312.914062 159.757812 313.550781 C 159.277344 314.1875 158.820312 314.789062 158.382812 315.351562 C 157.949219 315.917969 157.535156 316.449219 157.140625 316.941406 C 156.75 317.433594 156.378906 317.890625 156.03125 318.308594 C 155.683594 318.726562 155.359375 319.105469 155.054688 319.449219 C 154.753906 319.792969 154.476562 320.097656 154.21875 320.367188 C 153.964844 320.632812 153.730469 320.863281 153.523438 321.054688 C 153.3125 321.246094 153.128906 321.398438 152.96875 321.511719 C 152.804688 321.625 152.667969 321.699219 152.554688 321.738281 C 152.441406 321.773438 152.351562 321.769531 152.285156 321.730469 Z M 152.285156 321.730469 " fill-opacity="1" fill-rule="nonzero"/></g></g></g></g><g clip-path="url(#990cc96d5d)"><g clip-path="url(#9c204502b0)"><g clip-path="url(#f359268a55)"><g clip-path="url(#ec01eb37b6)"><path fill="#efb078" d="M 100.976562 235.527344 C 100.960938 235.519531 100.964844 235.480469 100.988281 235.410156 C 101.011719 235.339844 101.054688 235.238281 101.117188 235.105469 C 101.179688 234.976562 101.257812 234.8125 101.359375 234.621094 C 101.457031 234.429688 101.578125 234.207031 101.714844 233.953125 C 101.851562 233.703125 102.007812 233.417969 102.183594 233.109375 C 102.355469 232.796875 102.550781 232.453125 102.761719 232.082031 C 102.972656 231.710938 103.203125 231.3125 103.449219 230.882812 C 103.699219 230.453125 103.964844 229.996094 104.25 229.511719 C 104.53125 229.027344 104.835938 228.511719 105.152344 227.96875 C 105.472656 227.429688 105.808594 226.859375 106.160156 226.261719 C 106.515625 225.667969 106.886719 225.042969 107.273438 224.394531 C 107.660156 223.746094 108.0625 223.070312 108.484375 222.371094 C 108.902344 221.667969 109.335938 220.945312 109.789062 220.195312 C 110.238281 219.441406 110.707031 218.667969 111.1875 217.871094 C 111.667969 217.070312 112.167969 216.25 112.675781 215.40625 C 113.1875 214.558594 113.714844 213.695312 114.253906 212.804688 C 114.792969 211.914062 115.34375 211.007812 115.910156 210.074219 C 116.476562 209.144531 117.054688 208.195312 117.644531 207.222656 C 118.238281 206.253906 118.839844 205.265625 119.457031 204.257812 C 120.070312 203.25 120.699219 202.226562 121.335938 201.183594 C 121.976562 200.140625 122.625 199.082031 123.28125 198.007812 C 123.941406 196.929688 124.609375 195.839844 125.289062 194.738281 C 125.964844 193.632812 126.652344 192.515625 127.351562 191.382812 C 128.046875 190.25 128.75 189.105469 129.464844 187.949219 C 130.175781 186.792969 130.894531 185.625 131.621094 184.449219 C 132.347656 183.269531 133.082031 182.082031 133.820312 180.886719 C 134.558594 179.691406 135.304688 178.484375 136.054688 177.273438 C 136.804688 176.0625 137.558594 174.839844 138.320312 173.617188 C 139.078125 172.390625 139.839844 171.160156 140.609375 169.925781 C 141.375 168.6875 142.144531 167.449219 142.914062 166.207031 C 143.6875 164.964844 144.460938 163.71875 145.234375 162.472656 C 146.011719 161.226562 146.789062 159.980469 147.566406 158.730469 C 148.339844 157.484375 149.117188 156.238281 149.894531 154.992188 C 150.671875 153.746094 151.449219 152.503906 152.222656 151.261719 C 152.996094 150.019531 153.769531 148.785156 154.539062 147.550781 C 155.3125 146.316406 156.078125 145.089844 156.84375 143.867188 C 157.609375 142.644531 158.371094 141.429688 159.128906 140.222656 C 159.886719 139.015625 160.636719 137.816406 161.386719 136.625 C 162.132812 135.433594 162.875 134.25 163.613281 133.078125 C 164.347656 131.90625 165.078125 130.746094 165.800781 129.597656 C 166.523438 128.449219 167.242188 127.3125 167.949219 126.1875 C 168.660156 125.0625 169.359375 123.953125 170.050781 122.855469 C 170.742188 121.761719 171.425781 120.679688 172.101562 119.613281 C 172.773438 118.550781 173.4375 117.5 174.09375 116.46875 C 174.746094 115.433594 175.390625 114.421875 176.023438 113.425781 C 176.65625 112.425781 177.277344 111.449219 177.886719 110.492188 C 178.496094 109.53125 179.09375 108.59375 179.679688 107.675781 C 180.265625 106.757812 180.835938 105.859375 181.398438 104.984375 C 181.957031 104.109375 182.503906 103.253906 183.035156 102.421875 C 183.570312 101.589844 184.085938 100.785156 184.589844 100 C 185.09375 99.214844 185.585938 98.453125 186.058594 97.71875 C 186.535156 96.984375 186.992188 96.273438 187.4375 95.585938 C 187.878906 94.902344 188.308594 94.242188 188.71875 93.605469 C 189.132812 92.972656 189.527344 92.367188 189.90625 91.785156 C 190.285156 91.207031 190.648438 90.652344 190.992188 90.128906 C 191.339844 89.601562 191.667969 89.105469 191.976562 88.636719 C 192.289062 88.167969 192.582031 87.726562 192.855469 87.316406 C 193.132812 86.902344 193.390625 86.519531 193.628906 86.167969 C 193.871094 85.8125 194.089844 85.488281 194.292969 85.195312 C 194.496094 84.902344 194.679688 84.636719 194.847656 84.402344 C 195.011719 84.167969 195.160156 83.964844 195.289062 83.789062 C 195.417969 83.613281 195.527344 83.472656 195.617188 83.359375 C 195.707031 83.246094 195.777344 83.164062 195.832031 83.109375 C 195.882812 83.058594 195.917969 83.035156 195.933594 83.046875 C 195.945312 83.054688 195.941406 83.09375 195.917969 83.164062 C 195.894531 83.234375 195.851562 83.335938 195.789062 83.46875 C 195.730469 83.597656 195.648438 83.761719 195.550781 83.953125 C 195.449219 84.144531 195.332031 84.367188 195.195312 84.617188 C 195.054688 84.871094 194.898438 85.152344 194.726562 85.464844 C 194.550781 85.777344 194.359375 86.117188 194.144531 86.488281 C 193.933594 86.859375 193.703125 87.261719 193.457031 87.6875 C 193.207031 88.117188 192.941406 88.574219 192.660156 89.0625 C 192.375 89.546875 192.074219 90.0625 191.753906 90.601562 C 191.433594 91.144531 191.097656 91.714844 190.746094 92.308594 C 190.390625 92.90625 190.023438 93.527344 189.632812 94.179688 C 189.246094 94.828125 188.84375 95.503906 188.425781 96.203125 C 188.003906 96.902344 187.570312 97.628906 187.117188 98.378906 C 186.667969 99.128906 186.199219 99.90625 185.71875 100.703125 C 185.238281 101.503906 184.742188 102.324219 184.230469 103.167969 C 183.71875 104.011719 183.195312 104.878906 182.65625 105.769531 C 182.117188 106.65625 181.5625 107.566406 180.996094 108.496094 C 180.429688 109.429688 179.851562 110.378906 179.261719 111.347656 C 178.667969 112.320312 178.066406 113.308594 177.449219 114.316406 C 176.835938 115.324219 176.207031 116.347656 175.570312 117.390625 C 174.933594 118.433594 174.285156 119.492188 173.625 120.566406 C 172.964844 121.640625 172.296875 122.730469 171.617188 123.835938 C 170.941406 124.941406 170.253906 126.058594 169.558594 127.191406 C 168.859375 128.324219 168.15625 129.46875 167.445312 130.625 C 166.730469 131.78125 166.011719 132.945312 165.285156 134.125 C 164.558594 135.300781 163.824219 136.488281 163.085938 137.6875 C 162.347656 138.882812 161.601562 140.085938 160.851562 141.300781 C 160.101562 142.511719 159.347656 143.730469 158.589844 144.957031 C 157.828125 146.183594 157.066406 147.414062 156.300781 148.648438 C 155.53125 149.882812 154.765625 151.125 153.992188 152.367188 C 153.21875 153.609375 152.445312 154.851562 151.671875 156.101562 C 150.894531 157.347656 150.121094 158.59375 149.34375 159.839844 C 148.566406 161.089844 147.789062 162.335938 147.011719 163.582031 C 146.234375 164.828125 145.460938 166.070312 144.683594 167.3125 C 143.910156 168.550781 143.136719 169.789062 142.367188 171.023438 C 141.59375 172.253906 140.828125 173.484375 140.0625 174.703125 C 139.296875 175.925781 138.535156 177.140625 137.78125 178.351562 C 137.023438 179.558594 136.269531 180.757812 135.523438 181.949219 C 134.773438 183.140625 134.03125 184.320312 133.296875 185.492188 C 132.558594 186.664062 131.828125 187.828125 131.105469 188.976562 C 130.382812 190.125 129.667969 191.261719 128.957031 192.386719 C 128.25 193.507812 127.546875 194.621094 126.855469 195.714844 C 126.164062 196.8125 125.480469 197.894531 124.808594 198.957031 C 124.132812 200.023438 123.46875 201.074219 122.816406 202.105469 C 122.160156 203.136719 121.515625 204.152344 120.882812 205.148438 C 120.25 206.144531 119.628906 207.125 119.019531 208.082031 C 118.410156 209.042969 117.8125 209.980469 117.226562 210.898438 C 116.640625 211.816406 116.070312 212.714844 115.507812 213.589844 C 114.949219 214.464844 114.402344 215.320312 113.871094 216.148438 C 113.339844 216.980469 112.820312 217.789062 112.316406 218.574219 C 111.8125 219.359375 111.324219 220.117188 110.847656 220.855469 C 110.375 221.589844 109.914062 222.300781 109.46875 222.988281 C 109.027344 223.671875 108.597656 224.332031 108.1875 224.964844 C 107.773438 225.601562 107.378906 226.207031 107 226.785156 C 106.621094 227.367188 106.257812 227.917969 105.914062 228.445312 C 105.566406 228.96875 105.238281 229.46875 104.929688 229.9375 C 104.617188 230.40625 104.324219 230.847656 104.050781 231.257812 C 103.773438 231.667969 103.515625 232.050781 103.277344 232.40625 C 103.039062 232.757812 102.816406 233.082031 102.613281 233.378906 C 102.410156 233.671875 102.226562 233.9375 102.0625 234.171875 C 101.894531 234.40625 101.746094 234.609375 101.621094 234.785156 C 101.492188 234.957031 101.382812 235.101562 101.289062 235.214844 C 101.199219 235.328125 101.128906 235.410156 101.074219 235.464844 C 101.023438 235.515625 100.988281 235.535156 100.976562 235.527344 Z M 100.976562 235.527344 " fill-opacity="1" fill-rule="nonzero"/></g></g></g></g><g clip-path="url(#5c8c9ec85d)"><g clip-path="url(#a63aaf7247)"><g clip-path="url(#710ca6e98a)"><g clip-path="url(#4734a978ac)"><path fill="#efb078" d="M 83.480469 291.5 C 92.558594 294.332031 101.195312 298.171875 109.382812 303.015625 C 117.65625 307.867188 125.296875 313.566406 132.304688 320.117188 C 136.109375 323.679688 139.648438 327.496094 142.917969 331.5625 C 143.507812 332.304688 144.660156 331.960938 144.0625 331.210938 C 138.328125 324.042969 131.074219 317.121094 127.027344 311.726562 C 110.777344 290.058594 110.222656 297.949219 98.6875 296.214844 C 93.726562 295.46875 88.707031 291.972656 83.65625 290.414062 C 82.753906 290.136719 82.5625 291.207031 83.480469 291.5 Z M 83.480469 291.5 " fill-opacity="1" fill-rule="nonzero"/></g></g></g></g><g clip-path="url(#003d75dfa2)"><g clip-path="url(#9abde0f0f5)"><g clip-path="url(#b67f7e76e9)"><g clip-path="url(#69f7d4af62)"><path fill="#ffd0c0" d="M 266.90625 106.097656 L 277.640625 121.214844 C 278.179688 121.972656 279.328125 121.625 278.785156 120.859375 L 268.054688 105.742188 C 267.515625 104.992188 266.367188 105.339844 266.90625 106.097656 Z M 266.90625 106.097656 " fill-opacity="1" fill-rule="nonzero"/></g></g></g></g><g clip-path="url(#bc6e06e772)"><g clip-path="url(#19f2c7e09b)"><g clip-path="url(#a8229f6ab4)"><g clip-path="url(#0f3385363f)"><path fill="#ffd0c0" d="M 205.597656 76.503906 L 226.308594 82.421875 C 227.234375 82.6875 227.035156 81.5 226.113281 81.234375 L 205.398438 75.316406 C 204.472656 75.050781 204.664062 76.242188 205.597656 76.503906 Z M 205.597656 76.503906 " fill-opacity="1" fill-rule="nonzero"/></g></g></g></g><g clip-path="url(#c255e42f59)"><g clip-path="url(#6248177008)"><g clip-path="url(#feae44ed3b)"><g clip-path="url(#9cd1d25d30)"><path fill="#ffd0c0" d="M 251.617188 104.269531 C 251.539062 107.65625 252.144531 110.917969 253.4375 114.050781 C 253.742188 114.835938 255.078125 114.792969 254.765625 114.007812 C 253.550781 111.070312 252.972656 108.011719 253.03125 104.835938 C 253.074219 104.113281 251.644531 103.542969 251.617188 104.269531 Z M 251.617188 104.269531 " fill-opacity="1" fill-rule="nonzero"/></g></g></g></g><g clip-path="url(#b08757268c)"><g clip-path="url(#e1bb739062)"><g clip-path="url(#d5eca1d526)"><g clip-path="url(#224d13c2df)"><path fill="#ffd0c0" d="M 215.695312 87.40625 C 215.816406 87.816406 216.089844 88.058594 216.511719 88.136719 L 226.011719 88.996094 C 226.386719 89.027344 226.6875 88.882812 226.632812 88.535156 C 226.507812 88.125 226.238281 87.882812 225.816406 87.808594 L 216.3125 86.949219 C 215.933594 86.917969 215.644531 87.058594 215.695312 87.40625 Z M 215.695312 87.40625 " fill-opacity="1" fill-rule="nonzero"/></g></g></g></g><g clip-path="url(#a0eb07b119)"><g clip-path="url(#40dda62281)"><g clip-path="url(#7d70c2726f)"><g clip-path="url(#572c2f7dde)"><path fill="#ffd0c0" d="M 238.140625 104.171875 C 238.023438 104.859375 239.457031 105.429688 239.578125 104.738281 C 239.941406 102.609375 240.683594 100.625 241.804688 98.78125 C 242.152344 98.207031 240.820312 97.375 240.457031 97.953125 C 239.289062 99.878906 238.519531 101.949219 238.140625 104.171875 Z M 238.140625 104.171875 " fill-opacity="1" fill-rule="nonzero"/></g></g></g></g><g clip-path="url(#8085a851d5)"><g clip-path="url(#fdbfc0db54)"><g clip-path="url(#9358fc7a5c)"><g clip-path="url(#db57b90a36)"><path fill="#efb078" d="M 226.519531 29.808594 L 242.878906 74.121094 C 243.828125 76.6875 243.039062 79.03125 240.691406 79.863281 C 240.074219 80.054688 239.589844 80.417969 239.234375 80.953125 C 237.609375 83.566406 241.570312 88.980469 248.058594 93.042969 C 254.546875 97.105469 261.179688 98.277344 262.800781 95.648438 C 263.210938 94.992188 263.265625 94.148438 263.011719 93.199219 C 262.242188 90.320312 264.128906 88.191406 267.285156 88.035156 L 311.015625 85.859375 C 317.578125 85.546875 316.519531 77.660156 309.5 74.449219 L 294.753906 67.722656 C 292.207031 66.558594 290.117188 64.496094 289.261719 62.308594 L 283.527344 47.605469 C 282.203125 44.199219 278.035156 41.359375 274.207031 41.253906 L 254.65625 40.71875 C 251.925781 40.640625 248.898438 39.148438 246.929688 36.902344 L 238.964844 27.851562 C 233.640625 21.617188 224.050781 23.132812 226.519531 29.808594 Z M 226.519531 29.808594 " fill-opacity="1" fill-rule="nonzero"/></g></g></g></g><g clip-path="url(#c692db038a)"><g clip-path="url(#6af8549124)"><g clip-path="url(#8285778eba)"><g clip-path="url(#5fc2436ea4)"><path fill="#ffffff" d="M 271.992188 76.050781 C 280.582031 75.421875 289.179688 75.261719 297.789062 75.574219 C 298.671875 75.605469 298.113281 74.378906 297.238281 74.359375 C 288.628906 74.042969 280.027344 74.199219 271.433594 74.824219 C 270.59375 74.890625 271.144531 76.105469 271.992188 76.050781 Z M 271.992188 76.050781 " fill-opacity="1" fill-rule="nonzero"/></g></g></g></g><g clip-path="url(#d15960573a)"><g clip-path="url(#b1e7b7961f)"><g clip-path="url(#007d7ade04)"><g clip-path="url(#60030b4e14)"><path fill="#ffffff" d="M 267.09375 73.496094 L 278.699219 59.925781 L 282.039062 56.019531 C 282.480469 55.519531 281.140625 54.675781 280.691406 55.191406 L 269.085938 68.757812 L 265.742188 72.664062 C 265.320312 73.175781 266.65625 74.003906 267.09375 73.496094 Z M 267.09375 73.496094 " fill-opacity="1" fill-rule="nonzero"/></g></g></g></g><g clip-path="url(#cb8060a2c3)"><g clip-path="url(#5167ee106f)"><g clip-path="url(#ebce5b749c)"><g clip-path="url(#e3881315de)"><path fill="#ffffff" d="M 260.953125 46.4375 C 260.667969 52.964844 259.585938 59.355469 257.714844 65.613281 C 257.191406 67.34375 256.609375 69.042969 255.964844 70.710938 C 255.726562 71.335938 257.054688 72.175781 257.3125 71.539062 C 259.65625 65.457031 261.199219 59.175781 261.9375 52.699219 C 262.152344 50.820312 262.308594 48.921875 262.398438 47.003906 C 262.429688 46.289062 260.988281 45.71875 260.953125 46.4375 Z M 260.953125 46.4375 " fill-opacity="1" fill-rule="nonzero"/></g></g></g></g><g clip-path="url(#e411e16739)"><g clip-path="url(#c3d8e72dd1)"><g clip-path="url(#c59f922f93)"><g clip-path="url(#a9f1970807)"><path fill="#ffffff" d="M 240.984375 42.59375 C 241.625 43.183594 241.6875 43.929688 241.808594 44.554688 C 241.980469 45.464844 242.152344 46.367188 242.320312 47.273438 C 242.644531 49.019531 242.957031 50.765625 243.261719 52.507812 C 243.875 56.023438 244.445312 59.53125 244.96875 63.035156 C 245.269531 65.027344 245.554688 67.015625 245.828125 69 C 245.929688 69.761719 247.359375 70.035156 247.261719 69.289062 C 246.265625 62.015625 245.082031 54.710938 243.71875 47.367188 C 243.53125 46.359375 243.359375 45.351562 243.148438 44.335938 C 242.996094 43.40625 242.574219 42.621094 241.886719 41.976562 C 241.140625 41.28125 240.253906 41.917969 240.984375 42.59375 Z M 240.984375 42.59375 " fill-opacity="1" fill-rule="nonzero"/></g></g></g></g><g clip-path="url(#c51e6c5373)"><g clip-path="url(#11dd7f7ff2)"><g clip-path="url(#43e32bd660)"><g clip-path="url(#67027b781d)"><path fill="#ffffff" d="M 247.164062 80.644531 C 251.371094 81.644531 255.527344 84.558594 257.8125 88.019531 C 258.320312 88.785156 259.464844 88.4375 258.960938 87.667969 C 256.386719 83.773438 251.675781 80.570312 246.960938 79.453125 C 246.054688 79.234375 246.25 80.421875 247.164062 80.644531 Z M 247.164062 80.644531 " fill-opacity="1" fill-rule="nonzero"/></g></g></g></g></svg>